<svg width="192" height="71" viewBox="0 0 192 71" fill="none" xmlns="http://www.w3.org/2000/svg">
<path d="M64.6353 67V55.8H71.1793C71.8407 55.8 72.4433 55.9547 72.9873 56.264C73.542 56.5627 73.9847 56.9733 74.3153 57.496C74.646 58.0187 74.8113 58.6 74.8113 59.24C74.8113 59.912 74.63 60.5253 74.2673 61.08C73.9047 61.624 73.4247 62.0613 72.8273 62.392C72.23 62.712 71.574 62.872 70.8593 62.872H66.3633V67H64.6353ZM66.3633 61.208H70.6993C71.1047 61.208 71.478 61.1173 71.8193 60.936C72.1713 60.7547 72.4487 60.5147 72.6513 60.216C72.8647 59.9173 72.9713 59.592 72.9713 59.24C72.9713 58.9093 72.8647 58.6107 72.6513 58.344C72.4487 58.0773 72.1713 57.864 71.8193 57.704C71.478 57.544 71.1047 57.464 70.6993 57.464H66.3633V61.208ZM77.3985 67L82.8705 55.8H84.8865L90.3265 67H88.4225L84.6625 59.288C84.5665 59.0853 84.4705 58.888 84.3745 58.696C84.2785 58.504 84.1825 58.312 84.0865 58.12C84.0011 57.928 83.9158 57.7253 83.8305 57.512C83.7451 57.2987 83.6598 57.064 83.5745 56.808L84.0865 56.792C83.9905 57.048 83.8945 57.288 83.7985 57.512C83.7131 57.736 83.6225 57.9493 83.5265 58.152C83.4305 58.3547 83.3345 58.5573 83.2385 58.76C83.1425 58.952 83.0465 59.1493 82.9505 59.352L79.2225 67H77.3985ZM79.7825 64.376L80.4705 62.712H87.1105L87.3825 64.376H79.7825ZM99.4495 67.16C98.6495 67.16 97.9081 67.08 97.2255 66.92C96.5535 66.76 95.9348 66.52 95.3695 66.2C94.8148 65.88 94.3081 65.4747 93.8495 64.984L94.9375 63.544C95.6308 64.2587 96.3348 64.7813 97.0495 65.112C97.7748 65.4427 98.5801 65.608 99.4655 65.608C100.02 65.608 100.553 65.544 101.065 65.416C101.577 65.2773 101.999 65.0747 102.329 64.808C102.66 64.5307 102.825 64.184 102.825 63.768C102.825 63.5013 102.735 63.2827 102.553 63.112C102.372 62.9413 102.132 62.8027 101.833 62.696C101.545 62.5893 101.231 62.504 100.889 62.44C100.548 62.376 100.217 62.328 99.8975 62.296C99.5881 62.264 99.3268 62.2373 99.1135 62.216C98.3988 62.12 97.7481 61.992 97.1615 61.832C96.5855 61.6613 96.0895 61.448 95.6735 61.192C95.2681 60.936 94.9535 60.6213 94.7295 60.248C94.5161 59.8747 94.4095 59.4427 94.4095 58.952C94.4095 58.4293 94.5321 57.9653 94.7775 57.56C95.0335 57.144 95.3855 56.7973 95.8335 56.52C96.2921 56.232 96.8201 56.0133 97.4175 55.864C98.0255 55.7147 98.6815 55.64 99.3855 55.64C100.132 55.64 100.815 55.7147 101.433 55.864C102.052 56.0133 102.601 56.2373 103.081 56.536C103.572 56.824 103.977 57.1813 104.297 57.608L103.145 58.872C102.847 58.5093 102.5 58.2053 102.105 57.96C101.711 57.704 101.279 57.512 100.809 57.384C100.351 57.256 99.8601 57.192 99.3375 57.192C98.7615 57.192 98.2441 57.256 97.7855 57.384C97.3268 57.512 96.9641 57.6933 96.6975 57.928C96.4308 58.152 96.2975 58.4293 96.2975 58.76C96.2975 59.048 96.3775 59.2933 96.5375 59.496C96.7081 59.6987 96.9428 59.8693 97.2415 60.008C97.5401 60.136 97.8975 60.2427 98.3135 60.328C98.7401 60.4133 99.2095 60.488 99.7215 60.552C100.361 60.6267 100.98 60.7227 101.577 60.84C102.175 60.9573 102.708 61.1227 103.177 61.336C103.647 61.5387 104.02 61.816 104.297 62.168C104.575 62.52 104.713 62.9787 104.713 63.544C104.713 64.2693 104.495 64.904 104.057 65.448C103.62 65.992 103.007 66.4133 102.217 66.712C101.439 67.0107 100.516 67.16 99.4495 67.16ZM119.219 67V55.8H120.947V67H119.219ZM109.667 67V55.8H111.395V67H109.667ZM110.419 62.312L110.435 60.648H119.987V62.312H110.419ZM126.776 67V55.8H128.472L133.576 62.12H132.968L138.072 55.8H139.768V67H138.04V62.248C138.04 61.3627 138.061 60.5307 138.104 59.752C138.147 58.9733 138.232 58.1787 138.36 57.368L138.536 58.024L133.8 63.784H132.744L128.008 58.024L128.184 57.368C128.312 58.1787 128.397 58.9733 128.44 59.752C128.483 60.5307 128.504 61.3627 128.504 62.248V67H126.776ZM145.716 67V65.288H148.644V57.512H145.716V55.8H153.3V57.512H150.372V65.288H153.3V67H145.716ZM159.245 67V55.8H160.957L170.045 64.968L169.949 65.112C169.895 64.792 169.847 64.4507 169.805 64.088C169.773 63.7147 169.746 63.336 169.725 62.952C169.703 62.5573 169.682 62.1627 169.661 61.768C169.65 61.3627 169.639 60.968 169.629 60.584C169.629 60.2 169.629 59.832 169.629 59.48V55.8H171.357V67H169.613L160.637 58.168L160.653 57.944C160.674 58.136 160.695 58.3653 160.717 58.632C160.738 58.8987 160.765 59.1867 160.797 59.496C160.829 59.8053 160.855 60.1253 160.877 60.456C160.909 60.776 160.93 61.1013 160.941 61.432C160.962 61.752 160.973 62.056 160.973 62.344V67H159.245ZM175.742 67L181.214 55.8H183.23L188.67 67H186.766L183.006 59.288C182.91 59.0853 182.814 58.888 182.718 58.696C182.622 58.504 182.526 58.312 182.43 58.12C182.345 57.928 182.26 57.7253 182.174 57.512C182.089 57.2987 182.004 57.064 181.918 56.808L182.43 56.792C182.334 57.048 182.238 57.288 182.142 57.512C182.057 57.736 181.966 57.9493 181.87 58.152C181.774 58.3547 181.678 58.5573 181.582 58.76C181.486 58.952 181.39 59.1493 181.294 59.352L177.566 67H175.742ZM178.126 64.376L178.814 62.712H185.454L185.726 64.376H178.126Z" fill="#B76E79"/>
<path d="M55.3272 51.3419C54.0151 51.7169 52.7814 51.8158 51.6262 51.6336C49.9639 51.3419 48.2441 50.7742 46.4615 49.9252C44.6737 49.0658 42.9069 48.0294 41.1505 46.8211C39.4045 45.6023 37.7683 44.269 36.2367 42.8211C34.7155 41.3627 33.3826 39.9044 32.243 38.4461C30.6957 40.045 29.3261 41.0711 28.1447 41.5294C27.5436 43.0294 26.7438 44.7586 25.7401 46.7169C24.7364 48.6752 23.555 50.644 22.2064 52.6127C20.8525 54.5711 19.3052 56.3002 17.5644 57.8002C15.8185 59.3002 13.9157 60.3471 11.8561 60.9461C9.22151 61.7065 6.94236 61.6388 5.01868 60.7377C3.10545 59.8523 1.73587 57.9825 0.899484 55.1336C0.439472 53.5398 0.376743 51.8575 0.711297 50.0919C1.0354 48.3315 1.66268 46.6336 2.61407 45.0086C3.57591 43.3731 4.74685 42.0086 6.12689 40.9252C7.78397 39.5398 9.66584 38.5398 11.7725 37.9252C12.9539 37.5815 13.9889 37.6231 14.8671 38.0502C15.7558 38.4825 16.3412 39.1856 16.6235 40.1544C16.7594 40.5867 16.7803 40.894 16.6862 41.0711C16.6706 41.1023 16.6287 41.1283 16.5608 41.1544C16.4458 41.1856 16.268 41.0919 16.0171 40.8836C15.1912 39.9981 14.4594 39.4617 13.8216 39.2794C13.1787 39.0867 12.3684 39.1283 11.3961 39.4044C9.90107 39.8367 8.55763 40.6231 7.36055 41.7586C6.17393 42.8836 5.18595 44.2169 4.39139 45.7586C3.60728 47.3002 3.10022 48.92 2.86499 50.6127C2.62453 52.3106 2.72385 53.9148 3.15772 55.4252C4.21366 59.0502 6.87963 60.5086 11.1452 59.8002C12.7448 59.4981 14.6005 58.2481 16.7071 56.0502C19.8854 52.8002 22.8441 47.9408 25.5937 41.4669C24.6005 40.9825 23.921 40.0867 23.5446 38.7794C23.1264 37.3211 23.2309 35.8575 23.8582 34.3836C24.5796 32.8002 25.8446 31.7533 27.6429 31.2377C28.1447 31.0867 28.6256 30.9981 29.0856 30.9669C29.5456 29.1492 29.9691 27.3315 30.3611 25.5086C30.7479 23.6908 31.0982 21.8627 31.4066 20.0294C32.0025 16.5294 32.2325 14.5242 32.0966 14.0086C32.0653 13.9408 32.0339 13.9148 31.9921 13.9252C31.8771 13.8992 31.5111 14.1492 30.8839 14.6752C30.267 15.1908 29.5509 15.8158 28.7302 16.5502C27.9199 17.2742 27.1724 17.9669 26.4928 18.6336C25.8081 19.3002 25.3533 19.7794 25.1337 20.0711C24.1823 21.1544 23.2989 22.4252 22.4782 23.8836C21.4327 25.8002 21.0198 27.1648 21.2445 27.9669C21.3543 28.3419 21.6104 28.6023 22.0182 28.7377C22.8807 29.0294 24.0098 28.9825 25.4055 28.5919C25.5728 28.6075 25.6617 28.6492 25.6774 28.7169C25.7296 28.8836 25.2435 29.2169 24.2137 29.7169C23.1787 30.1752 22.3423 30.4617 21.7045 30.5711C20.8107 30.6127 20.2513 30.2481 20.0318 29.4669C19.6972 28.3002 20.0109 26.6856 20.9727 24.6127C21.945 22.545 23.1578 20.7898 24.611 19.3419C28.8609 15.2065 31.6627 12.9408 33.0166 12.5502C33.3512 12.4565 33.6648 12.4408 33.9576 12.5086C34.1092 12.5658 34.2294 12.7325 34.313 13.0086C34.909 15.0658 33.7798 21.7586 30.9257 33.0919C31.1452 33.4565 31.4275 33.8731 31.7621 34.3419C32.0966 34.8158 32.4939 35.3523 32.9539 35.9461L44.7469 20.1127C46.7229 17.4773 48.5316 15.0815 50.1625 12.9252C51.8039 10.7586 53.4244 8.86272 55.0135 7.23772C56.6131 5.61272 58.3016 4.23772 60.0737 3.11272C61.8562 1.9773 63.8792 1.08147 66.1375 0.425219C67.392 0.0658439 68.6048 -0.0643641 69.7757 0.0293853C70.4867 0.0866773 70.9362 0.466885 71.1349 1.17522C71.3021 1.74813 71.2185 2.08147 70.8839 2.17522C70.7167 2.21689 70.518 2.17001 70.2985 2.02939C69.8907 1.77939 69.2007 1.79501 68.2284 2.07105C67.6848 2.23772 66.9948 2.51897 66.1584 2.90439C65.322 3.27939 64.3183 3.77939 63.1474 4.40439C61.3335 5.40439 59.4934 6.68564 57.6272 8.23772C55.7558 9.79501 53.8531 11.644 51.9189 13.7794C49.462 16.5033 46.242 20.545 42.2587 25.9044C40.2095 28.6544 38.4636 30.9461 37.0313 32.7794C35.6094 34.6023 34.5065 35.9669 33.7276 36.8836C34.9246 38.2065 36.289 39.5398 37.8258 40.8836C39.3575 42.2169 40.9727 43.4773 42.6769 44.6544C44.3758 45.8211 46.0904 46.8106 47.8206 47.6127C49.5457 48.4044 51.1766 48.9148 52.7135 49.1336C54.2033 49.3575 55.4945 49.3158 56.5818 49.0086C58.197 48.5398 58.8243 47.67 58.4636 46.4044C58.4479 46.3523 58.427 46.2742 58.4009 46.1752C58.3695 46.0658 58.3225 45.9825 58.2545 45.9252C58.2389 45.8731 58.2179 45.8211 58.1918 45.7794C58.1604 45.7273 58.1395 45.6856 58.1291 45.6544C58.0298 45.3211 58.0298 45.0086 58.1291 44.7169C58.2232 44.4148 58.38 44.2325 58.5891 44.1752C59.0177 44.0398 59.4516 44.4669 59.8855 45.4669C59.9534 45.5242 60.0005 45.6075 60.0319 45.7169C60.058 45.8158 60.0789 45.894 60.0946 45.9461C60.3298 46.769 60.2409 47.5398 59.8228 48.2586C59.4046 48.9825 58.7877 49.6075 57.9827 50.1336C57.1881 50.6492 56.2995 51.0502 55.3272 51.3419ZM26.6392 38.9252L26.8065 38.3002C26.9738 37.8158 27.1881 37.1908 27.4547 36.4252C27.7317 35.6648 28.0297 34.7533 28.3538 33.6961C27.8938 33.6544 27.5174 33.6752 27.2247 33.7586C26.5138 33.9669 26.0015 34.4461 25.6983 35.1961C25.4055 35.9356 25.3637 36.67 25.5728 37.4044C25.7662 38.045 26.1217 38.5502 26.6392 38.9252ZM29.0856 39.1127C29.4202 39.019 29.6397 38.9408 29.7547 38.8836C30.1729 38.6908 30.7689 38.2325 31.553 37.5086C31.2864 37.1336 31.0407 36.8002 30.8211 36.5086C30.612 36.2065 30.4291 35.9252 30.2775 35.6752C30.152 36.1075 29.99 36.6231 29.7966 37.2169C29.6136 37.8002 29.3784 38.4356 29.0856 39.1127Z" fill="#B76E79"/>
<path d="M54.6837 25.6269C54.1087 25.7935 53.5546 25.7519 53.011 25.5019C52.4778 25.2415 52.1537 24.8769 52.0282 24.4185C51.7459 23.4758 52.2478 22.8248 53.5337 22.4602C54.0042 22.3248 54.5217 22.3456 55.081 22.5227C55.6508 22.705 56.0063 23.0227 56.1474 23.481C56.2729 23.8977 56.1579 24.3352 55.8129 24.7935C55.4626 25.2415 55.0863 25.5175 54.6837 25.6269ZM50.5018 46.2727C49.7595 46.481 49.0695 46.4185 48.4318 46.0852C47.794 45.7415 47.2922 44.9342 46.9263 43.6685C46.7329 42.9758 46.6649 42.1165 46.7172 41.0852C46.7747 40.0592 46.9158 39.0123 47.1354 37.9394C47.3445 36.856 47.5745 35.8717 47.8254 34.981C48.8395 31.3873 49.9477 29.3873 51.15 28.981C51.4532 28.8977 51.861 28.9185 52.3628 29.0435C52.8751 29.1685 53.1835 29.3925 53.2828 29.7102C53.2828 29.7102 52.4673 31.7258 50.8364 35.7519C49.2577 39.7519 48.6722 42.4498 49.08 43.8352C49.3988 44.9081 49.9791 45.3144 50.8155 45.0644C51.3696 44.9133 52.0125 44.4915 52.7392 43.7935C53.4605 43.0852 54.1924 42.2467 54.9347 41.2727C55.6717 40.2883 56.3565 39.2675 56.9838 38.2102C57.6111 37.1581 58.092 36.2102 58.4266 35.3769C58.6461 34.8508 58.8552 34.4706 59.0539 34.231C59.263 33.981 59.3989 33.8456 59.472 33.8144C59.5975 33.7727 59.6916 33.856 59.7648 34.0644C59.8066 34.231 59.7073 34.6269 59.472 35.2519C59.2316 35.8665 58.8709 36.606 58.3847 37.481C57.8097 38.5123 57.172 39.6425 56.4611 40.8769C55.7501 42.1008 54.9138 43.2102 53.9519 44.2102C53.0005 45.1998 51.8505 45.8873 50.5018 46.2727Z" fill="#B76E79"/>
<path d="M54.6837 25.6269C54.1087 25.7935 53.5546 25.7519 53.011 25.5019C52.4778 25.2415 52.1537 24.8769 52.0282 24.4185C51.7459 23.4758 52.2478 22.8248 53.5337 22.4602C54.0042 22.3248 54.5217 22.3456 55.081 22.5227C55.6508 22.705 56.0063 23.0227 56.1474 23.481C56.2729 23.8977 56.1579 24.3352 55.8129 24.7935C55.4626 25.2415 55.0863 25.5175 54.6837 25.6269ZM50.5018 46.2727C49.7595 46.481 49.0695 46.4185 48.4318 46.0852C47.794 45.7415 47.2922 44.9342 46.9263 43.6685C46.7329 42.9758 46.6649 42.1165 46.7172 41.0852C46.7747 40.0592 46.9158 39.0123 47.1354 37.9394C47.3445 36.856 47.5745 35.8717 47.8254 34.981C48.8395 31.3873 49.9477 29.3873 51.15 28.981C51.4532 28.8977 51.861 28.9185 52.3628 29.0435C52.8751 29.1685 53.1835 29.3925 53.2828 29.7102C53.2828 29.7102 52.4673 31.7258 50.8364 35.7519C49.2577 39.7519 48.6722 42.4498 49.08 43.8352C49.3988 44.9081 49.9791 45.3144 50.8155 45.0644C51.3696 44.9133 52.0125 44.4915 52.7392 43.7935C53.4605 43.0852 54.1924 42.2467 54.9347 41.2727C55.6717 40.2883 56.3565 39.2675 56.9838 38.2102C57.6111 37.1581 58.092 36.2102 58.4266 35.3769C58.6461 34.8508 58.8552 34.4706 59.0539 34.231C59.263 33.981 59.3989 33.8456 59.472 33.8144C59.5975 33.7727 59.6916 33.856 59.7648 34.0644C59.8066 34.231 59.7073 34.6269 59.472 35.2519C59.2316 35.8665 58.8709 36.606 58.3847 37.481C57.8097 38.5123 57.172 39.6425 56.4611 40.8769C55.7501 42.1008 54.9138 43.2102 53.9519 44.2102C53.0005 45.1998 51.8505 45.8873 50.5018 46.2727Z" stroke="#B76E79"/>
<path d="M71.9742 39.5753C71.1482 39.8149 70.6046 39.4712 70.3432 38.5545C70.1759 36.5858 70.3223 34.2524 70.7823 31.5545C70.9914 30.2524 71.211 28.966 71.4514 27.7003C71.6867 26.4243 71.9114 25.1326 72.1205 23.8253C71.1169 25.0337 70.1393 26.3358 69.1932 27.7212C68.2418 29.1118 67.3584 30.617 66.5377 32.242C65.5863 34.117 64.5303 36.4816 63.3594 39.3253C62.5335 41.367 62.0212 42.4191 61.8121 42.4712C61.3521 42.5962 60.8973 42.4868 60.453 42.1378C60.0191 41.7785 59.763 41.4451 59.6793 41.1378C59.5539 40.7108 59.6114 39.4712 59.8466 37.4295L59.8466 37.4292C59.9303 36.7939 60.0139 36.1586 60.0975 35.5337C60.1916 34.9087 60.2752 34.2941 60.3484 33.6795L58.2366 37.742C58.2104 37.8253 58.0693 38.0858 57.8184 38.5128C57.5674 38.9451 57.3374 39.1951 57.1283 39.2628C56.9767 39.3045 56.867 39.2108 56.7938 38.9712C56.7833 38.9035 56.7833 38.8045 56.7938 38.6795C56.7938 38.5545 56.867 38.3774 57.0029 38.1378C57.3531 37.5024 57.7138 36.8149 58.0902 36.0753C58.4561 35.341 58.822 34.5285 59.1984 33.6378C59.465 32.9295 59.8466 31.8982 60.3484 30.5337C60.8503 29.1743 61.4619 27.4608 62.1885 25.3878C62.408 24.7628 62.8628 24.3566 63.5476 24.1587C64.2167 23.966 64.6401 24.1899 64.8231 24.8253C64.891 25.0753 64.4885 26.8982 63.6103 30.2837C63.1764 32.091 62.8367 33.5545 62.5858 34.6795C62.3453 35.8045 62.2355 36.617 62.2512 37.117C62.753 36.1066 63.3699 34.9451 64.1122 33.6378C64.8492 32.3358 65.7117 30.8566 66.7049 29.2003C69.7421 24.1899 71.9219 21.492 73.2497 21.117C73.6103 21.0076 74.0024 21.0128 74.4206 21.1378C74.8492 21.2628 75.1211 21.5128 75.2361 21.8878C75.2779 22.0545 74.9695 23.4816 74.316 26.1587C73.6992 28.841 73.396 30.4243 73.396 30.9087C76.2397 26.6899 77.6616 24.5649 77.6616 24.5337C80.1132 21.1482 82.0317 19.2576 83.4117 18.867C83.8299 18.742 84.2533 18.7576 84.6872 18.9087C85.1159 19.0649 85.3825 19.3149 85.4818 19.6587C85.4922 19.7316 84.8179 21.4608 83.4535 24.8462C82.0317 28.2785 81.4358 30.9243 81.6762 32.7837C81.9115 34.0337 82.7269 34.4608 84.1226 34.0545C84.959 33.8201 85.9731 32.9451 87.1755 31.4295C88.3882 29.9191 89.5435 27.9712 90.6464 25.5962C90.7824 25.3045 90.9392 25.0128 91.1065 24.7212C91.2737 24.4295 91.4462 24.2628 91.6292 24.2212C91.8226 24.1535 91.9481 24.2108 92.0056 24.3878C92.0735 24.6274 91.9951 24.9399 91.7756 25.3253C91.2162 26.6326 90.4896 28.0128 89.601 29.4712C88.7228 30.9295 87.8027 32.2108 86.8409 33.3045C85.8895 34.4035 84.959 35.0858 84.039 35.3462C81.739 36.0024 80.2753 35.2628 79.648 33.1378C79.4389 32.4035 79.3866 31.4868 79.5016 30.3878C79.6271 29.2785 79.7787 28.2576 79.9616 27.3253C80.3798 25.1482 80.9496 23.1743 81.6762 21.4087C80.7667 22.242 79.8571 23.2732 78.9371 24.492C78.017 25.7003 77.1022 27.0753 76.1979 28.617C74.1174 32.2837 72.9621 35.7212 72.7269 38.9295C72.6119 39.2524 72.361 39.466 71.9742 39.5753Z" fill="#B76E79"/>
<path d="M71.9742 39.5753C71.1482 39.8149 70.6046 39.4712 70.3432 38.5545C70.1759 36.5858 70.3223 34.2524 70.7823 31.5545C70.9914 30.2524 71.211 28.966 71.4514 27.7003C71.6867 26.4243 71.9114 25.1326 72.1205 23.8253C71.1169 25.0337 70.1393 26.3358 69.1932 27.7212C68.2418 29.1118 67.3584 30.617 66.5377 32.242C65.5863 34.117 64.5303 36.4816 63.3594 39.3253C62.5335 41.367 62.0212 42.4191 61.8121 42.4712C61.3521 42.5962 60.8973 42.4868 60.453 42.1378C60.0191 41.7785 59.763 41.4451 59.6793 41.1378C59.5539 40.7108 59.6114 39.4712 59.8466 37.4295L59.8466 37.4292C59.9303 36.7939 60.0139 36.1586 60.0975 35.5337C60.1916 34.9087 60.2752 34.2941 60.3484 33.6795L58.2366 37.742C58.2104 37.8253 58.0693 38.0858 57.8184 38.5128C57.5674 38.9451 57.3374 39.1951 57.1283 39.2628C56.9767 39.3045 56.867 39.2108 56.7938 38.9712C56.7833 38.9035 56.7833 38.8045 56.7938 38.6795C56.7938 38.5545 56.867 38.3774 57.0029 38.1378C57.3531 37.5024 57.7138 36.8149 58.0902 36.0753C58.4561 35.341 58.822 34.5285 59.1984 33.6378C59.465 32.9295 59.8466 31.8982 60.3484 30.5337C60.8503 29.1743 61.4619 27.4608 62.1885 25.3878C62.408 24.7628 62.8628 24.3566 63.5476 24.1587C64.2167 23.966 64.6401 24.1899 64.8231 24.8253C64.891 25.0753 64.4885 26.8982 63.6103 30.2837C63.1764 32.091 62.8367 33.5545 62.5858 34.6795C62.3453 35.8045 62.2355 36.617 62.2512 37.117C62.753 36.1066 63.3699 34.9451 64.1122 33.6378C64.8492 32.3358 65.7117 30.8566 66.7049 29.2003C69.7421 24.1899 71.9219 21.492 73.2497 21.117C73.6103 21.0076 74.0024 21.0128 74.4206 21.1378C74.8492 21.2628 75.1211 21.5128 75.2361 21.8878C75.2779 22.0545 74.9695 23.4816 74.316 26.1587C73.6992 28.841 73.396 30.4243 73.396 30.9087C76.2397 26.6899 77.6616 24.5649 77.6616 24.5337C80.1132 21.1482 82.0317 19.2576 83.4117 18.867C83.8299 18.742 84.2533 18.7576 84.6872 18.9087C85.1159 19.0649 85.3825 19.3149 85.4818 19.6587C85.4922 19.7316 84.8179 21.4608 83.4535 24.8462C82.0317 28.2785 81.4358 30.9243 81.6762 32.7837C81.9115 34.0337 82.7269 34.4608 84.1226 34.0545C84.959 33.8201 85.9731 32.9451 87.1755 31.4295C88.3882 29.9191 89.5435 27.9712 90.6464 25.5962C90.7824 25.3045 90.9392 25.0128 91.1065 24.7212C91.2737 24.4295 91.4462 24.2628 91.6292 24.2212C91.8226 24.1535 91.9481 24.2108 92.0056 24.3878C92.0735 24.6274 91.9951 24.9399 91.7756 25.3253C91.2162 26.6326 90.4896 28.0128 89.601 29.4712C88.7228 30.9295 87.8027 32.2108 86.8409 33.3045C85.8895 34.4035 84.959 35.0858 84.039 35.3462C81.739 36.0024 80.2753 35.2628 79.648 33.1378C79.4389 32.4035 79.3866 31.4868 79.5016 30.3878C79.6271 29.2785 79.7787 28.2576 79.9616 27.3253C80.3798 25.1482 80.9496 23.1743 81.6762 21.4087C80.7667 22.242 79.8571 23.2732 78.9371 24.492C78.017 25.7003 77.1022 27.0753 76.1979 28.617C74.1174 32.2837 72.9621 35.7212 72.7269 38.9295C72.6119 39.2524 72.361 39.466 71.9742 39.5753Z" stroke="#B76E79"/>
<path d="M95.4303 32.9825C94.411 33.2741 93.4648 33.2481 92.5866 32.8991C91.7241 32.5554 91.1334 31.9929 90.8093 31.2116C90.3493 30.1596 90.1977 29.0189 90.3493 27.795C90.4904 26.5762 90.8041 25.3471 91.2902 24.1075C91.7816 22.8731 92.3566 21.6804 93.0257 20.5241C95.5767 15.9304 98.2845 13.2221 101.16 12.3991C102.132 12.1075 102.858 12.1648 103.334 12.5658C103.528 12.7221 103.794 13.0658 104.129 13.6075C106.146 6.38873 107.903 2.5606 109.398 2.12831C109.732 2.04498 110.109 2.03456 110.527 2.08664C110.945 2.14394 111.186 2.30539 111.259 2.56581C111.311 2.7481 111.301 2.9981 111.217 3.31581C110.548 4.84706 109.884 6.3731 109.231 7.89914C108.588 9.43039 107.955 10.9564 107.328 12.4825C106.282 15.0398 105.472 17.2429 104.902 19.0866C104.343 20.9356 103.993 22.4616 103.857 23.67C103.826 24.045 103.82 24.4929 103.836 25.0033C103.862 25.5189 103.951 26.0346 104.108 26.545C104.286 27.1856 104.578 27.7064 104.986 28.1075C105.404 28.4981 105.969 28.5866 106.68 28.3783C107.777 28.0606 108.985 27.1283 110.297 25.5866C111.62 24.0346 113 21.7221 114.437 18.6491C114.531 18.4721 114.625 18.3106 114.709 18.17C114.803 18.0346 114.918 17.9356 115.044 17.8783C115.336 17.7116 115.509 17.7273 115.566 17.92C115.592 18.0346 115.551 18.2481 115.441 18.5658C114.74 20.1231 113.925 21.6908 112.994 23.2741C112.059 24.8471 111.034 26.2273 109.921 27.42C108.818 28.6023 107.689 29.3575 106.533 29.6908C105.404 30.0137 104.489 29.8523 103.794 29.2116C103.094 28.5606 102.602 27.7481 102.31 26.7741C102.027 25.7741 101.954 24.795 102.08 23.8366L99.1522 29.1283C98.4936 30.295 97.8454 31.1908 97.2076 31.8158C96.5647 32.4408 95.974 32.8314 95.4303 32.9825ZM94.6357 32.0033C96.0994 31.5866 97.9395 28.8991 100.156 23.9408C100.281 23.7064 100.658 22.795 101.285 21.2116C101.923 19.6283 102.811 17.3158 103.941 14.2741C103.606 13.9408 103.146 13.8575 102.56 14.0241C100.47 14.6231 98.1486 17.0762 95.5976 21.3783C93.1564 25.4096 92.2416 28.4616 92.8584 30.545C93.2034 31.7689 93.7994 32.2533 94.6357 32.0033Z" fill="#B76E79"/>
<path d="M95.4303 32.9825C94.411 33.2741 93.4648 33.2481 92.5866 32.8991C91.7241 32.5554 91.1334 31.9929 90.8093 31.2116C90.3493 30.1596 90.1977 29.0189 90.3493 27.795C90.4904 26.5762 90.8041 25.3471 91.2902 24.1075C91.7816 22.8731 92.3566 21.6804 93.0257 20.5241C95.5767 15.9304 98.2845 13.2221 101.16 12.3991C102.132 12.1075 102.858 12.1648 103.334 12.5658C103.528 12.7221 103.794 13.0658 104.129 13.6075C106.146 6.38873 107.903 2.5606 109.398 2.12831C109.732 2.04498 110.109 2.03456 110.527 2.08664C110.945 2.14394 111.186 2.30539 111.259 2.56581C111.311 2.7481 111.301 2.9981 111.217 3.31581C110.548 4.84706 109.884 6.3731 109.231 7.89914C108.588 9.43039 107.955 10.9564 107.328 12.4825C106.282 15.0398 105.472 17.2429 104.902 19.0866C104.343 20.9356 103.993 22.4616 103.857 23.67C103.826 24.045 103.82 24.4929 103.836 25.0033C103.862 25.5189 103.951 26.0346 104.108 26.545C104.286 27.1856 104.578 27.7064 104.986 28.1075C105.404 28.4981 105.969 28.5866 106.68 28.3783C107.777 28.0606 108.985 27.1283 110.297 25.5866C111.62 24.0346 113 21.7221 114.437 18.6491C114.531 18.4721 114.625 18.3106 114.709 18.17C114.803 18.0346 114.918 17.9356 115.044 17.8783C115.336 17.7116 115.509 17.7273 115.566 17.92C115.592 18.0346 115.551 18.2481 115.441 18.5658C114.74 20.1231 113.925 21.6908 112.994 23.2741C112.059 24.8471 111.034 26.2273 109.921 27.42C108.818 28.6023 107.689 29.3575 106.533 29.6908C105.404 30.0137 104.489 29.8523 103.794 29.2116C103.094 28.5606 102.602 27.7481 102.31 26.7741C102.027 25.7741 101.954 24.795 102.08 23.8366L99.1522 29.1283C98.4936 30.295 97.8454 31.1908 97.2076 31.8158C96.5647 32.4408 95.974 32.8314 95.4303 32.9825ZM94.6357 32.0033C96.0994 31.5866 97.9395 28.8991 100.156 23.9408C100.281 23.7064 100.658 22.795 101.285 21.2116C101.923 19.6283 102.811 17.3158 103.941 14.2741C103.606 13.9408 103.146 13.8575 102.56 14.0241C100.47 14.6231 98.1486 17.0762 95.5976 21.3783C93.1564 25.4096 92.2416 28.4616 92.8584 30.545C93.2034 31.7689 93.7994 32.2533 94.6357 32.0033Z" stroke="#B76E79"/>
<mask id="mask0_1_77" style="mask-type:luminance" maskUnits="userSpaceOnUse" x="110" y="6" width="36" height="41">
<path d="M110.602 6.22229H145.395V46.2223H110.602V6.22229Z" fill="white"/>
</mask>
<g mask="url(#mask0_1_77)">
<mask id="mask1_1_77" style="mask-type:luminance" maskUnits="userSpaceOnUse" x="103" y="-5" width="44" height="52">
<path d="M103.336 4.72225L134.13 -4.36108L146.666 37.8316L115.871 46.915L103.336 4.72225Z" fill="white"/>
</mask>
<g mask="url(#mask1_1_77)">
<mask id="mask2_1_77" style="mask-type:luminance" maskUnits="userSpaceOnUse" x="103" y="-5" width="44" height="52">
<path d="M103.336 4.72225L134.13 -4.36108L146.666 37.8316L115.871 46.915L103.336 4.72225Z" fill="white"/>
</mask>
<g mask="url(#mask2_1_77)">
<path fill-rule="evenodd" clip-rule="evenodd" d="M124.679 20.2275C125.584 18.7587 126.896 16.5973 127.455 14.4827C126.362 14.3108 121.574 13.8681 119.065 18.9306C120.905 19.4618 122.975 19.79 124.679 20.2275ZM117.758 15.7639C119.975 11.8316 124.402 10.6962 127.382 10.8681C124.941 5.28475 113.351 11.6129 114.758 16.0243C115.641 13.5452 118.134 11.6545 120.915 11.79C118.103 12.0973 113.743 15.9462 116.613 17.9827C117.068 18.3056 117.633 18.467 118.161 18.6441C120.952 12.8212 126.457 13.3733 127.648 13.566C127.8 12.5556 127.429 12.066 126.822 11.8681C124.193 11.0035 119.509 13.5504 117.758 15.7639ZM113.848 18.5348C115.066 19.2431 117.711 20.5816 121.067 21.1129C118.642 21.2691 116.357 20.5973 114.653 19.8785C114.575 20.415 114.115 20.941 113.979 21.6598C113.712 23.1077 114.616 24.7014 116.111 24.9775C125.066 26.6337 130.675 29.3316 133.958 38.04C135.495 35.5504 139.3 37.165 143.461 34.915C137.429 34.2066 137.507 28.6181 132.562 24.4098C130.382 22.5504 127.241 21.8473 124.308 21.0973C120.283 20.0712 111.015 19.316 114.449 12.8473C114.663 12.4462 114.914 12.066 115.202 11.7014C113.289 13.6441 110.612 17.3056 113.848 18.5348ZM112.782 18.967C106.556 15.5087 123.921 -1.35067 130.351 11.0764C131.02 11.1858 132.201 11.5868 133.163 12.3941C136.723 15.3941 133.717 19.8212 131.49 22.54C134.308 24.1129 136.091 26.8264 137.507 29.0868C139.185 31.7639 140.56 33.9514 144.543 34.0504C145.118 34.0608 145.348 34.8316 144.873 35.1545C139.938 38.4827 135.589 36.1493 134.496 39.0973C134.303 39.6129 133.524 39.6129 133.341 39.0868C132.139 35.6754 130.649 32.9723 128.291 30.8993C128.385 33.0243 129.175 35.1285 130.523 36.7795C130.738 37.04 130.753 37.3889 130.576 37.6702C128.129 41.4879 121.595 38.8056 121.443 44.8577C121.428 45.4566 120.623 45.6493 120.335 45.1233C119.462 43.54 116.869 37.4723 121.114 27.1441C119.473 26.6337 117.727 26.2327 115.944 25.8993C113.587 25.467 112.337 22.7014 113.346 20.592C113.649 19.967 113.973 19.6493 112.782 18.967ZM130.586 12.0868C130.644 13.9514 129.562 17.04 127.716 18.4983C132.74 10.4462 126.326 4.82642 118.945 8.85767C122.865 7.06079 127.329 7.54517 128.396 10.915C129.373 14.0087 127.204 17.9358 125.631 20.4723C127.35 20.9098 129.075 21.3733 130.638 22.1025C132.52 19.8264 135.667 15.7223 132.557 13.1077C131.856 12.5191 131.172 12.2223 130.586 12.0868ZM127.345 30.1389C125.892 29.0608 124.146 28.1754 122.008 27.4358C118.568 35.7639 119.692 41.1389 120.633 43.5452C121.611 38.29 127.972 40.1025 129.729 37.3004C129.086 36.4931 127.235 33.8525 127.345 30.1389Z" fill="#B76E79"/>
</g>
</g>
</g>
<mask id="mask3_1_77" style="mask-type:luminance" maskUnits="userSpaceOnUse" x="116" y="21" width="20" height="11">
<path d="M116.624 21.2223H135.359V31.889H116.624V21.2223Z" fill="white"/>
<path d="M116.624 21.2223H135.359V31.889H116.624V21.2223Z" stroke="white"/>
</mask>
<g mask="url(#mask3_1_77)">
<mask id="mask4_1_77" style="mask-type:luminance" maskUnits="userSpaceOnUse" x="104" y="-5" width="44" height="53">
<path d="M104.005 5.05562L134.799 -4.02771L147.335 38.165L116.54 47.2483L104.005 5.05562Z" fill="white"/>
<path d="M104.005 5.05562L134.799 -4.02771L147.335 38.165L116.54 47.2483L104.005 5.05562Z" stroke="white"/>
</mask>
<g mask="url(#mask4_1_77)">
<mask id="mask5_1_77" style="mask-type:luminance" maskUnits="userSpaceOnUse" x="104" y="-5" width="44" height="53">
<path d="M104.005 5.05562L134.799 -4.02771L147.335 38.165L116.54 47.2483L104.005 5.05562Z" fill="white"/>
<path d="M104.005 5.05562L134.799 -4.02771L147.335 38.165L116.54 47.2483L104.005 5.05562Z" stroke="white"/>
</mask>
<g mask="url(#mask5_1_77)">
<path d="M117.497 22.2848C119.119 23.45 121.855 24.2793 124.67 25.1324C129.14 26.487 133.807 27.9014 134.522 30.816C132.635 28.2824 128.602 27.0429 124.889 25.9016C121.61 24.8939 118.58 23.9627 117.497 22.2848Z" fill="#B76E79"/>
<path d="M117.497 22.2848C119.119 23.45 121.855 24.2793 124.67 25.1324C129.14 26.487 133.807 27.9014 134.522 30.816C132.635 28.2824 128.602 27.0429 124.889 25.9016C121.61 24.8939 118.58 23.9627 117.497 22.2848Z" stroke="#B76E79"/>
</g>
</g>
</g>
</svg>
