<svg width="49" height="58" viewBox="0 0 49 58" fill="none" xmlns="http://www.w3.org/2000/svg">
<mask id="path-1-outside-1_168_174" maskUnits="userSpaceOnUse" x="-0.5" y="0" width="50" height="59" fill="black">
<rect fill="white" x="-0.5" width="50" height="59"/>
<path d="M46.0634 15.1324C45.8219 14.7487 45.6203 14.3413 45.4618 13.9166C45.4395 13.8669 45.4114 13.8201 45.378 13.777C45.6787 12.5729 45.6136 11.3064 45.191 10.1395L45.0709 9.72073C44.6117 8.09598 44.3088 7.02398 43.3527 6.59267C42.0559 6.00921 40.2623 6.87183 34.9442 9.42202L34.3481 9.70119C31.1377 11.2366 23.6002 13.396 18.1007 10.5052C12.3987 7.50694 6.70088 6.15996 4.84024 7.37015C4.49381 7.61178 4.20122 7.92258 3.98092 8.28294C3.76062 8.6433 3.61739 9.04541 3.56026 9.4639C3.43959 10.2585 3.50506 11.0704 3.75149 11.8354C3.7028 12.2515 3.56204 12.6516 3.33943 13.0065C3.11682 13.3614 2.81795 13.6623 2.46453 13.8873C1.55317 14.5264 0.907615 15.4774 0.649945 16.5603C0.056716 18.9332 1.27388 22.4926 3.41509 25.2968C3.52664 28.1315 3.03518 30.9575 1.9732 33.5881C1.47803 34.9046 1.10698 36.2644 0.864903 37.65C0.672103 39.2318 0.583974 40.8247 0.601091 42.4181V42.4405C0.601091 43.3477 0.610862 44.2481 0.631799 45.14L0.65832 46.332C0.689029 47.5101 0.718341 48.631 0.714154 49.6276C0.714154 49.6485 0.723924 49.6681 0.72532 49.689C0.676466 50.1231 0.884445 50.6912 1.91597 51.2551C2.64441 51.6527 3.39681 52.0046 4.16884 52.309C4.72771 52.5211 5.26674 52.7822 5.77963 53.0893C5.87777 53.1477 5.98876 53.1812 6.10286 53.1868C6.21696 53.1923 6.33067 53.1698 6.43403 53.1212C6.53739 53.0725 6.62722 52.9992 6.69565 52.9078C6.76408 52.8163 6.80902 52.7094 6.82651 52.5965C6.82651 52.5965 6.98005 51.6041 7.11544 50.4246C8.61312 51.2303 9.93515 52.3264 11.0042 53.649C11.1149 53.7923 11.277 53.887 11.4562 53.913C11.6354 53.9391 11.8177 53.8944 11.9646 53.7886C12.1823 53.6322 14.0583 52.1136 13.1678 46.949C12.4238 42.7252 12.2703 36.2402 14.1449 31.4552C16.2047 31.9314 18.312 32.172 20.4261 32.1727C23.362 32.1586 26.2827 31.7496 29.1096 30.9569C29.3265 32.2754 29.4404 33.6087 29.4502 34.9448C29.4502 35.6916 29.4083 36.5193 29.3608 37.4406C29.1651 40.2847 29.1964 43.1398 29.4544 45.9789C29.6014 47.6347 29.6601 49.2972 29.6302 50.9592C29.6302 50.969 29.6219 50.976 29.6205 50.9871C29.6205 51.0231 29.6233 51.0591 29.6288 51.0946C29.5967 53.4326 29.4544 55.2668 29.453 55.2975C29.4408 55.4516 29.4801 55.6053 29.5647 55.7347C29.6493 55.864 29.7745 55.9616 29.9206 56.0121C31.588 56.4764 33.3434 56.5272 35.0349 56.1601C37.8786 55.595 40.8307 56.0769 43.3471 57.5169C43.4613 57.5937 43.596 57.6346 43.7337 57.6341C43.8141 57.6338 43.8938 57.6201 43.9696 57.5936C44.0723 57.5569 44.1649 57.4965 44.2401 57.4175C44.3152 57.3385 44.3708 57.243 44.4023 57.1386C44.957 54.7543 45.1164 52.2952 44.8741 49.8593C44.8942 49.75 44.8875 49.6374 44.8546 49.5313C44.3627 44.1927 43.5517 38.8884 42.4258 33.6467C42.0532 31.7526 41.76 30.2562 41.6805 29.5234C41.4342 28.2331 41.58 26.8985 42.0992 25.6919C42.5905 25.562 43.0986 25.4406 43.6346 25.3275C44.4912 25.2351 45.3111 24.9299 46.0196 24.4396C46.728 23.9493 47.3026 23.2896 47.6909 22.5205C48.6973 20.1671 47.3587 17.2038 46.0634 15.1324ZM11.5291 45.3954C9.17849 44.5077 4.86955 43.1802 2.0039 44.0136V42.7782C3.7822 42.0022 7.22292 42.5172 11.4174 44.2118C11.4495 44.6096 11.4816 45.013 11.5291 45.3954ZM5.58701 51.3975C5.29319 51.2586 4.99478 51.1297 4.69228 51.0109C3.96892 50.7256 3.26405 50.3956 2.58178 50.0226C2.50146 49.9798 2.42321 49.9332 2.34728 49.883C3.36569 49.6845 4.4126 49.6816 5.43207 49.8747C5.54513 49.89 5.6568 49.911 5.76567 49.9347C5.70565 50.4693 5.64284 50.9816 5.58701 51.3975ZM11.5207 52.1038C10.219 50.6229 8.58031 49.4768 6.74276 48.7622C6.37996 48.6374 6.00602 48.5476 5.62609 48.4942C4.45575 48.302 3.26138 48.3086 2.09324 48.5137C2.08347 47.8046 2.06811 47.069 2.04857 46.293C2.04857 46.0361 2.0374 45.7639 2.03042 45.5015C4.20653 44.5761 8.47359 45.6565 11.7594 46.9909C11.7705 47.0523 11.7775 47.1305 11.7887 47.1835C12.2136 48.8115 12.1199 50.5316 11.5207 52.1038ZM11.2988 42.6596C8.58107 41.6183 4.68809 40.4933 2.01507 41.2721C2.02753 40.126 2.10489 38.9814 2.24678 37.844C2.47857 36.5457 2.82948 35.2715 3.29505 34.0375C4.17738 31.7518 4.69822 29.3425 4.83884 26.8965C4.99936 27.0514 5.15011 27.2245 5.31621 27.3696C7.51564 29.1288 10.0597 30.407 12.7839 31.1216C11.5193 34.8289 11.0142 38.7529 11.2988 42.6596ZM43.5425 51.3263C41.2789 50.1919 38.7345 49.7395 36.2186 50.024C34.4994 50.2606 32.767 50.3888 31.0317 50.4079C31.0317 49.9598 31.0316 49.5034 31.0191 49.0358C32.815 49.0161 34.6079 48.8846 36.3875 48.6421C38.8495 48.3772 41.3326 48.8902 43.4881 50.1092C43.5048 50.5223 43.5244 50.9285 43.5327 51.3263H43.5425ZM43.2759 55.8823C40.6345 54.6022 37.6475 54.2185 34.7683 54.7894C33.4884 55.0496 32.1702 55.0596 30.8865 54.8187C30.927 54.1892 30.9842 53.0976 31.0149 51.8037C32.8122 51.7855 34.6067 51.654 36.3875 51.4101C38.8729 51.1449 41.3787 51.6704 43.5481 52.912C43.5396 53.9082 43.4462 54.902 43.2689 55.8823H43.2759ZM40.293 29.67C40.3795 30.4614 40.6769 31.9829 41.0551 33.9105C42.0685 38.723 42.839 43.5834 43.3638 48.4733C41.1431 47.3985 38.6628 46.9764 36.2116 47.2561C34.4722 47.4961 32.7191 47.6239 30.9633 47.6385C30.936 47.0388 30.8941 46.4398 30.8376 45.8421C30.5867 43.0716 30.5573 40.2855 30.7497 37.5104C30.7972 36.564 30.8404 35.7125 30.8404 34.9448C30.8304 33.4654 30.6997 31.9893 30.4496 30.5312C31.8208 30.012 33.1599 29.4117 34.4598 28.7334C36.3874 27.7261 38.3904 26.8702 40.4507 26.1734C40.1901 27.3202 40.1367 28.5044 40.293 29.67ZM46.4054 21.9678C46.0969 22.524 45.6569 22.9961 45.1237 23.3429C44.5906 23.6896 43.9806 23.9004 43.3471 23.9568C40.0276 24.6858 36.8255 25.8729 33.8331 27.4841C32.2453 28.3388 30.5795 29.0399 28.8583 29.5779C17.5828 32.7185 9.33063 29.0028 6.23328 26.3116C3.04519 23.5465 1.44557 19.13 2.0039 16.8967C2.18948 16.1069 2.66983 15.4178 3.3467 14.9705C3.85684 14.5987 4.2893 14.1307 4.61969 13.5928C4.63784 13.6193 4.6504 13.65 4.66994 13.6765C5.67486 14.8267 6.78006 15.8851 7.97249 16.8395C9.41551 18.0122 10.7583 19.3032 11.9869 20.699C12.0442 20.7705 12.115 20.8301 12.1953 20.8743C12.2756 20.9186 12.3639 20.9465 12.455 20.9566C12.5461 20.9667 12.6383 20.9588 12.7264 20.9333C12.8144 20.9077 12.8966 20.8651 12.9682 20.8078C13.0398 20.7506 13.0994 20.6797 13.1436 20.5994C13.1878 20.5191 13.2157 20.4309 13.2258 20.3397C13.236 20.2486 13.228 20.1564 13.2025 20.0684C13.177 19.9803 13.1343 19.8981 13.077 19.8266C11.7953 18.3611 10.3917 17.007 8.88117 15.7786C7.76496 14.8849 6.7269 13.8978 5.77824 12.8279C5.09824 11.9371 4.79727 10.814 4.94074 9.70258C4.96739 9.47306 5.04009 9.25128 5.1545 9.05053C5.26891 8.84978 5.42266 8.67419 5.60655 8.53427C6.53199 7.93406 11.2778 8.48961 17.4502 11.7349C23.4453 14.8881 31.5202 12.6031 34.9525 10.9546L35.5486 10.6685C39.7556 8.66129 42.0741 7.54463 42.779 7.86008C43.1419 8.02479 43.3876 8.893 43.7281 10.0934L43.8482 10.5219C44.285 11.5265 44.3121 12.662 43.9236 13.6863C43.389 14.5978 41.8982 15.0137 39.8505 15.5009C39.0204 15.6911 38.182 15.8434 37.338 15.9573C34.9204 16.3174 32.8351 16.6287 28.0571 19.673C27.9073 19.7752 27.8032 19.9316 27.7667 20.1092C27.7302 20.2868 27.7643 20.4717 27.8617 20.6246C27.9591 20.7775 28.1122 20.8865 28.2886 20.9285C28.465 20.9705 28.6508 20.9423 28.8067 20.8497C33.3334 17.9645 35.2848 17.6742 37.5432 17.3378C38.4254 17.2184 39.3015 17.0582 40.1688 16.8576C41.7167 16.6304 43.191 16.048 44.4763 15.1561C44.5964 15.3962 44.729 15.6363 44.8755 15.8708C46.4375 18.3651 46.9944 20.5873 46.4054 21.9678ZM36.9933 21.6425C36.9933 21.8276 36.9197 22.0052 36.7888 22.136C36.658 22.2669 36.4804 22.3405 36.2953 22.3405C34.1051 22.4379 31.9621 23.0094 30.0141 24.0155C28.5783 24.6949 27.0738 25.2185 25.5265 25.5774C23.4913 25.9711 21.4229 26.1679 19.3499 26.165C15.8907 26.3167 12.4558 25.5192 9.41717 23.8591C9.26114 23.7595 9.15105 23.6021 9.11113 23.4213C9.07121 23.2405 9.10473 23.0513 9.20431 22.8953C9.30389 22.7393 9.46138 22.6292 9.64214 22.5893C9.82289 22.5493 10.0121 22.5829 10.1681 22.6824C14.4785 25.4378 21.9183 24.8865 25.2431 24.2095C26.6938 23.8702 28.1037 23.376 29.4488 22.7355C31.5737 21.6506 33.9086 21.0396 36.2925 20.9446C36.3844 20.9443 36.4755 20.962 36.5605 20.9969C36.6455 21.0319 36.7227 21.0832 36.7879 21.148C36.853 21.2129 36.9046 21.29 36.9399 21.3748C36.9751 21.4597 36.9933 21.5507 36.9933 21.6425ZM39.8226 41.2442C40.0608 41.7946 40.1575 42.3959 40.1038 42.9932C40.0502 43.5905 39.8479 44.1649 39.5155 44.664C39.3893 44.807 39.2342 44.9217 39.0606 45.0006C38.8869 45.0795 38.6985 45.1208 38.5077 45.1219C38.4011 45.122 38.2947 45.1099 38.1909 45.0856C37.1817 44.8497 36.2953 43.5055 35.6253 41.201C34.0718 35.8479 33.1561 33.4499 33.1463 33.4262C33.0799 33.2533 33.0848 33.0611 33.1601 32.8918C33.2354 32.7226 33.3748 32.5902 33.5476 32.5238C33.7205 32.4573 33.9127 32.4623 34.082 32.5375C34.2512 32.6128 34.3836 32.7522 34.45 32.9251C34.4863 33.0228 35.3922 35.3901 36.9625 40.8115C37.6437 43.1523 38.3584 43.7065 38.5091 43.7274C38.6485 43.4031 38.7189 43.0534 38.7161 42.7004C38.7132 42.3474 38.637 41.9989 38.4924 41.6769C38.464 41.5898 38.453 41.4979 38.4601 41.4065C38.4672 41.3151 38.4923 41.226 38.5338 41.1442C38.5753 41.0625 38.6326 40.9898 38.7022 40.9302C38.7719 40.8706 38.8526 40.8253 38.9397 40.7969C39.0269 40.7685 39.1188 40.7575 39.2102 40.7646C39.3016 40.7717 39.3907 40.7967 39.4724 40.8383C39.5542 40.8798 39.6269 40.937 39.6865 41.0067C39.7461 41.0764 39.7914 41.1571 39.8198 41.2442H39.8226ZM3.68728 38.239C5.31235 36.2545 6.40606 33.8894 6.86559 31.3659C6.89502 31.183 6.99589 31.0193 7.14602 30.9108C7.29614 30.8023 7.48322 30.7579 7.6661 30.7873C7.84898 30.8168 8.01267 30.9176 8.12118 31.0678C8.22968 31.2179 8.2741 31.405 8.24467 31.5879C7.749 34.3862 6.53013 37.0064 4.70903 39.1882C4.64793 39.2598 4.57297 39.3183 4.48868 39.3602C4.40438 39.402 4.31248 39.4264 4.21851 39.4319C4.12454 39.4373 4.03044 39.4237 3.94187 39.3918C3.8533 39.36 3.77209 39.3105 3.70313 39.2465C3.63417 39.1824 3.57888 39.105 3.54058 39.0191C3.50229 38.9331 3.48179 38.8402 3.4803 38.7461C3.47882 38.652 3.4964 38.5585 3.53197 38.4714C3.56754 38.3843 3.62036 38.3052 3.68728 38.239ZM30.5878 1.97804L30.7567 1.56627C30.7915 1.48149 30.8427 1.40441 30.9073 1.33941C30.9719 1.27441 31.0487 1.22278 31.1333 1.18746C31.2179 1.15214 31.3086 1.13382 31.4002 1.13356C31.4919 1.13329 31.5827 1.15108 31.6675 1.18591C31.7522 1.22073 31.8293 1.27192 31.8943 1.33654C31.9593 1.40116 32.0109 1.47795 32.0463 1.56252C32.0816 1.6471 32.0999 1.7378 32.1002 1.82945C32.1004 1.9211 32.0826 2.01191 32.0478 2.09669L31.8789 2.50846C31.8263 2.63657 31.7367 2.74613 31.6216 2.82318C31.5066 2.90024 31.3712 2.94131 31.2327 2.94117C31.1416 2.94124 31.0515 2.92321 30.9674 2.88813C30.7965 2.81765 30.6605 2.68224 30.5894 2.51161C30.5182 2.34099 30.5176 2.14909 30.5878 1.97804ZM32.7974 4.55056C32.7113 4.38691 32.6936 4.19577 32.7483 4.01911C32.803 3.84245 32.9256 3.69473 33.0891 3.60838L33.4841 3.4004C33.6474 3.31943 33.8359 3.30555 34.0093 3.36173C34.1827 3.41791 34.3272 3.5397 34.412 3.70105C34.4968 3.86239 34.5151 4.0505 34.463 4.22516C34.4109 4.39982 34.2925 4.54717 34.1332 4.63571L33.7396 4.84369C33.5757 4.92971 33.3845 4.94715 33.2078 4.89218C33.0311 4.83722 32.8835 4.71434 32.7974 4.55056ZM34.3956 6.55917C34.5644 6.59517 34.7139 6.69248 34.8152 6.83228C34.9165 6.97208 34.9624 7.14446 34.944 7.31611C34.9256 7.48776 34.8442 7.6465 34.7156 7.76166C34.587 7.87683 34.4203 7.94024 34.2477 7.93965C34.1975 7.93931 34.1475 7.93417 34.0983 7.92429L33.6628 7.82379C33.4818 7.78437 33.3238 7.67464 33.2237 7.51876C33.1236 7.36288 33.0895 7.1736 33.1289 6.99257C33.1683 6.81155 33.278 6.6536 33.4339 6.55347C33.5898 6.45334 33.7791 6.41924 33.9601 6.45867L34.3956 6.55917ZM26.1853 8.95302C26.2461 8.88217 26.3204 8.82421 26.4039 8.78259C26.4875 8.74097 26.5785 8.71652 26.6717 8.7107C26.7648 8.70488 26.8582 8.7178 26.9462 8.7487C27.0343 8.7796 27.1153 8.82785 27.1844 8.89059C27.2535 8.95334 27.3093 9.0293 27.3485 9.11399C27.3877 9.19868 27.4095 9.29038 27.4127 9.38365C27.4159 9.47693 27.4003 9.56989 27.3669 9.65704C27.3335 9.74419 27.2829 9.82375 27.2182 9.89102L26.9195 10.2204C26.7936 10.3514 26.6216 10.4281 26.4401 10.4342C26.2585 10.4403 26.0818 10.3755 25.9473 10.2533C25.8128 10.1312 25.7312 9.9615 25.7199 9.7802C25.7086 9.59891 25.7684 9.42035 25.8866 9.28244L26.1853 8.95302ZM24.1963 6.96675C24.1839 6.87582 24.1896 6.78334 24.213 6.6946C24.2364 6.60587 24.2771 6.52262 24.3327 6.44963C24.3883 6.37663 24.4578 6.31533 24.5371 6.26921C24.6165 6.2231 24.7041 6.19309 24.7951 6.1809L25.2348 6.12227C25.3256 6.1099 25.418 6.11554 25.5066 6.13886C25.5953 6.16219 25.6784 6.20275 25.7514 6.25822C25.8244 6.3137 25.8857 6.383 25.9319 6.46218C25.9781 6.54136 26.0082 6.62886 26.0206 6.71969C26.033 6.81051 26.0273 6.90289 26.004 6.99154C25.9807 7.08019 25.9401 7.16337 25.8847 7.23634C25.8292 7.30932 25.7599 7.37065 25.6807 7.41684C25.6015 7.46303 25.514 7.49317 25.4232 7.50554L24.9821 7.56556C24.9505 7.56765 24.9188 7.56765 24.8872 7.56556C24.7192 7.56559 24.5569 7.50505 24.43 7.39505C24.3031 7.28506 24.2201 7.13299 24.1963 6.96675ZM24.9877 3.32223C25.0366 3.24466 25.1003 3.17749 25.1752 3.12457C25.2501 3.07164 25.3347 3.03398 25.4241 3.01376C25.5136 2.99354 25.6061 2.99114 25.6965 3.00671C25.7869 3.02227 25.8733 3.0555 25.9508 3.10448L26.3277 3.34177C26.4843 3.44061 26.5952 3.59762 26.636 3.77824C26.6769 3.95886 26.6443 4.1483 26.5454 4.3049C26.4466 4.46149 26.2896 4.57241 26.109 4.61324C25.9284 4.65408 25.7389 4.62149 25.5823 4.52265L25.2054 4.28535C25.1279 4.23644 25.0607 4.17272 25.0078 4.09783C24.9548 4.02295 24.9172 3.93836 24.897 3.84892C24.8768 3.75947 24.8744 3.66692 24.8899 3.57655C24.9055 3.48617 24.9387 3.39976 24.9877 3.32223ZM27.4807 1.91663C27.4518 1.82916 27.4405 1.73684 27.4475 1.645C27.4545 1.55316 27.4796 1.46361 27.5213 1.38151C27.5631 1.29941 27.6207 1.22639 27.6908 1.16666C27.7609 1.10693 27.8422 1.06167 27.9298 1.03348C28.0175 1.00529 28.1099 0.994745 28.2017 1.00244C28.2935 1.01013 28.3829 1.03592 28.4646 1.07831C28.5464 1.1207 28.619 1.17886 28.6782 1.24943C28.7373 1.32001 28.782 1.4016 28.8095 1.4895L28.9491 1.90825C29.0057 2.08465 28.99 2.27633 28.9053 2.44111C28.8206 2.60589 28.6739 2.73029 28.4975 2.78693C28.3211 2.84357 28.1294 2.82781 27.9647 2.74313C27.7999 2.65845 27.6755 2.51178 27.6188 2.33538L27.4807 1.91663ZM18.4873 37.3275C18.3046 37.3276 18.1292 37.2559 17.9987 37.1281C17.8682 37.0002 17.793 36.8262 17.7894 36.6436L17.7768 36.0154C17.775 35.9238 17.7912 35.8327 17.8246 35.7473C17.8579 35.6619 17.9078 35.5839 17.9713 35.5178C18.0348 35.4517 18.1108 35.3988 18.1947 35.362C18.2787 35.3252 18.3691 35.3054 18.4608 35.3036C18.5538 35.2962 18.6472 35.3086 18.7351 35.34C18.8229 35.3714 18.9031 35.421 18.9704 35.4856C19.0376 35.5503 19.0904 35.6284 19.1253 35.7149C19.1602 35.8014 19.1763 35.8943 19.1727 35.9875L19.1852 36.6156C19.1871 36.7073 19.1708 36.7984 19.1375 36.8838C19.1041 36.9692 19.0542 37.0472 18.9907 37.1133C18.9272 37.1794 18.8513 37.2323 18.7673 37.2691C18.6833 37.3058 18.5929 37.3257 18.5013 37.3275H18.4873ZM21.205 37.9961C21.1244 37.9523 21.0532 37.893 20.9955 37.8216C20.9378 37.7502 20.8948 37.6682 20.8688 37.5801C20.8429 37.4921 20.8346 37.3998 20.8444 37.3086C20.8541 37.2173 20.8818 37.1289 20.9258 37.0484L21.2301 36.4984C21.2739 36.4172 21.3334 36.3454 21.4051 36.2873C21.4768 36.2292 21.5593 36.1859 21.6478 36.1599C21.7364 36.1339 21.8292 36.1257 21.921 36.1358C22.0127 36.1459 22.1015 36.1741 22.1823 36.2188C22.263 36.2635 22.3341 36.3237 22.3915 36.3961C22.4488 36.4684 22.4912 36.5514 22.5162 36.6402C22.5413 36.729 22.5484 36.822 22.5373 36.9136C22.5262 37.0052 22.497 37.0937 22.4515 37.174L22.1472 37.7239C22.0868 37.8331 21.9982 37.9242 21.8907 37.9875C21.7831 38.0508 21.6606 38.0842 21.5358 38.0841C21.418 38.084 21.3022 38.0537 21.1994 37.9961H21.205ZM23.811 40.2671C23.6586 40.267 23.5104 40.217 23.3891 40.1247C23.2679 40.0324 23.1801 39.903 23.1393 39.7562C23.0985 39.6093 23.1068 39.4532 23.1631 39.3116C23.2193 39.1699 23.3204 39.0506 23.4509 38.9718L23.9883 38.6466C24.1469 38.5509 24.3371 38.5221 24.5169 38.5666C24.6967 38.6111 24.8515 38.7252 24.9472 38.8839C25.0429 39.0425 25.0717 39.2327 25.0272 39.4125C24.9827 39.5923 24.8686 39.7471 24.7099 39.8428L24.1711 40.168C24.0623 40.2332 23.9378 40.2674 23.811 40.2671ZM26.0108 42.5689C26.0127 42.6606 25.9964 42.7519 25.963 42.8374C25.9295 42.9228 25.8795 43.0009 25.8158 43.067C25.7522 43.1331 25.6761 43.186 25.592 43.2227C25.5078 43.2594 25.4173 43.2791 25.3255 43.2807L24.6974 43.2919H24.689C24.5039 43.2936 24.3257 43.2216 24.1936 43.0919C24.0616 42.9622 23.9865 42.7854 23.9848 42.6003C23.9831 42.4152 24.0551 42.237 24.1848 42.1049C24.3145 41.9729 24.4913 41.8977 24.6764 41.8961L25.3045 41.8849H25.3185C25.5002 41.8863 25.6743 41.9586 25.8036 42.0863C25.9328 42.214 26.0072 42.3872 26.0108 42.5689ZM25.0882 46.2916C25.0444 46.3722 24.9851 46.4434 24.9137 46.5011C24.8423 46.5588 24.7602 46.6018 24.6722 46.6277C24.5842 46.6537 24.4919 46.662 24.4006 46.6522C24.3094 46.6424 24.221 46.6147 24.1404 46.5707L23.5905 46.2664C23.4278 46.1763 23.3075 46.0252 23.2562 45.8464C23.2049 45.6676 23.2267 45.4758 23.3169 45.3131C23.407 45.1504 23.5581 45.0302 23.7369 44.9788C23.9157 44.9275 24.1075 44.9494 24.2702 45.0395L24.8202 45.3438C24.9811 45.4342 25.0997 45.5847 25.1499 45.7623C25.2001 45.94 25.1779 46.1303 25.0882 46.2916ZM22.6664 48.0964C22.7172 48.1749 22.7517 48.2628 22.7679 48.3549C22.784 48.447 22.7815 48.5415 22.7605 48.6326C22.7394 48.7237 22.7003 48.8097 22.6453 48.8853C22.5904 48.961 22.5208 49.0249 22.4408 49.0732C22.3607 49.1215 22.2717 49.1532 22.1791 49.1664C22.0865 49.1796 21.9922 49.1741 21.9018 49.1502C21.8114 49.1262 21.7268 49.0844 21.6529 49.0271C21.5789 48.9698 21.5173 48.8982 21.4716 48.8166L21.1464 48.2778C21.055 48.1194 21.0295 47.9314 21.0753 47.7543C21.1212 47.5772 21.2347 47.4252 21.3915 47.331C21.5483 47.2368 21.7358 47.2079 21.9137 47.2505C22.0915 47.2932 22.2456 47.4039 22.3426 47.559L22.6664 48.0964ZM19.4169 48.7775L19.4295 49.4071C19.4313 49.4987 19.4151 49.5898 19.3817 49.6752C19.3484 49.7606 19.2985 49.8386 19.235 49.9047C19.1715 49.9708 19.0956 50.0237 19.0116 50.0605C18.9276 50.0973 18.8372 50.1171 18.7455 50.1189H18.7316C18.5486 50.119 18.373 50.0472 18.2425 49.919C18.1119 49.7908 18.0369 49.6165 18.0337 49.4336L18.0211 48.8055C18.0192 48.7137 18.0355 48.6225 18.069 48.537C18.1024 48.4515 18.1524 48.3735 18.2161 48.3073C18.2797 48.2412 18.3558 48.1883 18.44 48.1516C18.5241 48.1149 18.6147 48.0952 18.7064 48.0936H18.719C18.9017 48.0935 19.0771 48.1652 19.2076 48.293C19.3381 48.4209 19.4133 48.5949 19.4169 48.7775ZM16.2749 48.3728L15.972 48.9227C15.9277 49.003 15.8681 49.0738 15.7965 49.131C15.7248 49.1882 15.6427 49.2308 15.5546 49.2563C15.4665 49.2818 15.3743 49.2896 15.2832 49.2794C15.192 49.2693 15.1038 49.2413 15.0235 49.197C14.9433 49.1527 14.8725 49.0931 14.8152 49.0215C14.758 48.9498 14.7154 48.8676 14.69 48.7796C14.6645 48.6915 14.6566 48.5993 14.6668 48.5081C14.677 48.417 14.705 48.3288 14.7493 48.2485L15.0522 47.6986C15.1416 47.5364 15.2917 47.4164 15.4696 47.365C15.6475 47.3135 15.8385 47.3349 16.0006 47.4243C16.1628 47.5137 16.2828 47.6638 16.3342 47.8417C16.3856 48.0196 16.3643 48.2106 16.2749 48.3728ZM14.8623 37.8635L14.5371 37.3261C14.4414 37.1675 14.4126 36.9773 14.4571 36.7975C14.5016 36.6177 14.6158 36.4629 14.7744 36.3672C14.933 36.2715 15.1232 36.2427 15.303 36.2872C15.4828 36.3317 15.6376 36.4458 15.7333 36.6045L16.0585 37.1433C16.1541 37.3019 16.1826 37.492 16.138 37.6717C16.0934 37.8514 15.9792 38.006 15.8206 38.1015C15.6619 38.197 15.4719 38.2256 15.2921 38.181C15.1124 38.1363 14.9578 38.0221 14.8623 37.8635Z"/>
</mask>
<path d="M46.0634 15.1324C45.8219 14.7487 45.6203 14.3413 45.4618 13.9166C45.4395 13.8669 45.4114 13.8201 45.378 13.777C45.6787 12.5729 45.6136 11.3064 45.191 10.1395L45.0709 9.72073C44.6117 8.09598 44.3088 7.02398 43.3527 6.59267C42.0559 6.00921 40.2623 6.87183 34.9442 9.42202L34.3481 9.70119C31.1377 11.2366 23.6002 13.396 18.1007 10.5052C12.3987 7.50694 6.70088 6.15996 4.84024 7.37015C4.49381 7.61178 4.20122 7.92258 3.98092 8.28294C3.76062 8.6433 3.61739 9.04541 3.56026 9.4639C3.43959 10.2585 3.50506 11.0704 3.75149 11.8354C3.7028 12.2515 3.56204 12.6516 3.33943 13.0065C3.11682 13.3614 2.81795 13.6623 2.46453 13.8873C1.55317 14.5264 0.907615 15.4774 0.649945 16.5603C0.056716 18.9332 1.27388 22.4926 3.41509 25.2968C3.52664 28.1315 3.03518 30.9575 1.9732 33.5881C1.47803 34.9046 1.10698 36.2644 0.864903 37.65C0.672103 39.2318 0.583974 40.8247 0.601091 42.4181V42.4405C0.601091 43.3477 0.610862 44.2481 0.631799 45.14L0.65832 46.332C0.689029 47.5101 0.718341 48.631 0.714154 49.6276C0.714154 49.6485 0.723924 49.6681 0.72532 49.689C0.676466 50.1231 0.884445 50.6912 1.91597 51.2551C2.64441 51.6527 3.39681 52.0046 4.16884 52.309C4.72771 52.5211 5.26674 52.7822 5.77963 53.0893C5.87777 53.1477 5.98876 53.1812 6.10286 53.1868C6.21696 53.1923 6.33067 53.1698 6.43403 53.1212C6.53739 53.0725 6.62722 52.9992 6.69565 52.9078C6.76408 52.8163 6.80902 52.7094 6.82651 52.5965C6.82651 52.5965 6.98005 51.6041 7.11544 50.4246C8.61312 51.2303 9.93515 52.3264 11.0042 53.649C11.1149 53.7923 11.277 53.887 11.4562 53.913C11.6354 53.9391 11.8177 53.8944 11.9646 53.7886C12.1823 53.6322 14.0583 52.1136 13.1678 46.949C12.4238 42.7252 12.2703 36.2402 14.1449 31.4552C16.2047 31.9314 18.312 32.172 20.4261 32.1727C23.362 32.1586 26.2827 31.7496 29.1096 30.9569C29.3265 32.2754 29.4404 33.6087 29.4502 34.9448C29.4502 35.6916 29.4083 36.5193 29.3608 37.4406C29.1651 40.2847 29.1964 43.1398 29.4544 45.9789C29.6014 47.6347 29.6601 49.2972 29.6302 50.9592C29.6302 50.969 29.6219 50.976 29.6205 50.9871C29.6205 51.0231 29.6233 51.0591 29.6288 51.0946C29.5967 53.4326 29.4544 55.2668 29.453 55.2975C29.4408 55.4516 29.4801 55.6053 29.5647 55.7347C29.6493 55.864 29.7745 55.9616 29.9206 56.0121C31.588 56.4764 33.3434 56.5272 35.0349 56.1601C37.8786 55.595 40.8307 56.0769 43.3471 57.5169C43.4613 57.5937 43.596 57.6346 43.7337 57.6341C43.8141 57.6338 43.8938 57.6201 43.9696 57.5936C44.0723 57.5569 44.1649 57.4965 44.2401 57.4175C44.3152 57.3385 44.3708 57.243 44.4023 57.1386C44.957 54.7543 45.1164 52.2952 44.8741 49.8593C44.8942 49.75 44.8875 49.6374 44.8546 49.5313C44.3627 44.1927 43.5517 38.8884 42.4258 33.6467C42.0532 31.7526 41.76 30.2562 41.6805 29.5234C41.4342 28.2331 41.58 26.8985 42.0992 25.6919C42.5905 25.562 43.0986 25.4406 43.6346 25.3275C44.4912 25.2351 45.3111 24.9299 46.0196 24.4396C46.728 23.9493 47.3026 23.2896 47.6909 22.5205C48.6973 20.1671 47.3587 17.2038 46.0634 15.1324ZM11.5291 45.3954C9.17849 44.5077 4.86955 43.1802 2.0039 44.0136V42.7782C3.7822 42.0022 7.22292 42.5172 11.4174 44.2118C11.4495 44.6096 11.4816 45.013 11.5291 45.3954ZM5.58701 51.3975C5.29319 51.2586 4.99478 51.1297 4.69228 51.0109C3.96892 50.7256 3.26405 50.3956 2.58178 50.0226C2.50146 49.9798 2.42321 49.9332 2.34728 49.883C3.36569 49.6845 4.4126 49.6816 5.43207 49.8747C5.54513 49.89 5.6568 49.911 5.76567 49.9347C5.70565 50.4693 5.64284 50.9816 5.58701 51.3975ZM11.5207 52.1038C10.219 50.6229 8.58031 49.4768 6.74276 48.7622C6.37996 48.6374 6.00602 48.5476 5.62609 48.4942C4.45575 48.302 3.26138 48.3086 2.09324 48.5137C2.08347 47.8046 2.06811 47.069 2.04857 46.293C2.04857 46.0361 2.0374 45.7639 2.03042 45.5015C4.20653 44.5761 8.47359 45.6565 11.7594 46.9909C11.7705 47.0523 11.7775 47.1305 11.7887 47.1835C12.2136 48.8115 12.1199 50.5316 11.5207 52.1038ZM11.2988 42.6596C8.58107 41.6183 4.68809 40.4933 2.01507 41.2721C2.02753 40.126 2.10489 38.9814 2.24678 37.844C2.47857 36.5457 2.82948 35.2715 3.29505 34.0375C4.17738 31.7518 4.69822 29.3425 4.83884 26.8965C4.99936 27.0514 5.15011 27.2245 5.31621 27.3696C7.51564 29.1288 10.0597 30.407 12.7839 31.1216C11.5193 34.8289 11.0142 38.7529 11.2988 42.6596ZM43.5425 51.3263C41.2789 50.1919 38.7345 49.7395 36.2186 50.024C34.4994 50.2606 32.767 50.3888 31.0317 50.4079C31.0317 49.9598 31.0316 49.5034 31.0191 49.0358C32.815 49.0161 34.6079 48.8846 36.3875 48.6421C38.8495 48.3772 41.3326 48.8902 43.4881 50.1092C43.5048 50.5223 43.5244 50.9285 43.5327 51.3263H43.5425ZM43.2759 55.8823C40.6345 54.6022 37.6475 54.2185 34.7683 54.7894C33.4884 55.0496 32.1702 55.0596 30.8865 54.8187C30.927 54.1892 30.9842 53.0976 31.0149 51.8037C32.8122 51.7855 34.6067 51.654 36.3875 51.4101C38.8729 51.1449 41.3787 51.6704 43.5481 52.912C43.5396 53.9082 43.4462 54.902 43.2689 55.8823H43.2759ZM40.293 29.67C40.3795 30.4614 40.6769 31.9829 41.0551 33.9105C42.0685 38.723 42.839 43.5834 43.3638 48.4733C41.1431 47.3985 38.6628 46.9764 36.2116 47.2561C34.4722 47.4961 32.7191 47.6239 30.9633 47.6385C30.936 47.0388 30.8941 46.4398 30.8376 45.8421C30.5867 43.0716 30.5573 40.2855 30.7497 37.5104C30.7972 36.564 30.8404 35.7125 30.8404 34.9448C30.8304 33.4654 30.6997 31.9893 30.4496 30.5312C31.8208 30.012 33.1599 29.4117 34.4598 28.7334C36.3874 27.7261 38.3904 26.8702 40.4507 26.1734C40.1901 27.3202 40.1367 28.5044 40.293 29.67ZM46.4054 21.9678C46.0969 22.524 45.6569 22.9961 45.1237 23.3429C44.5906 23.6896 43.9806 23.9004 43.3471 23.9568C40.0276 24.6858 36.8255 25.8729 33.8331 27.4841C32.2453 28.3388 30.5795 29.0399 28.8583 29.5779C17.5828 32.7185 9.33063 29.0028 6.23328 26.3116C3.04519 23.5465 1.44557 19.13 2.0039 16.8967C2.18948 16.1069 2.66983 15.4178 3.3467 14.9705C3.85684 14.5987 4.2893 14.1307 4.61969 13.5928C4.63784 13.6193 4.6504 13.65 4.66994 13.6765C5.67486 14.8267 6.78006 15.8851 7.97249 16.8395C9.41551 18.0122 10.7583 19.3032 11.9869 20.699C12.0442 20.7705 12.115 20.8301 12.1953 20.8743C12.2756 20.9186 12.3639 20.9465 12.455 20.9566C12.5461 20.9667 12.6383 20.9588 12.7264 20.9333C12.8144 20.9077 12.8966 20.8651 12.9682 20.8078C13.0398 20.7506 13.0994 20.6797 13.1436 20.5994C13.1878 20.5191 13.2157 20.4309 13.2258 20.3397C13.236 20.2486 13.228 20.1564 13.2025 20.0684C13.177 19.9803 13.1343 19.8981 13.077 19.8266C11.7953 18.3611 10.3917 17.007 8.88117 15.7786C7.76496 14.8849 6.7269 13.8978 5.77824 12.8279C5.09824 11.9371 4.79727 10.814 4.94074 9.70258C4.96739 9.47306 5.04009 9.25128 5.1545 9.05053C5.26891 8.84978 5.42266 8.67419 5.60655 8.53427C6.53199 7.93406 11.2778 8.48961 17.4502 11.7349C23.4453 14.8881 31.5202 12.6031 34.9525 10.9546L35.5486 10.6685C39.7556 8.66129 42.0741 7.54463 42.779 7.86008C43.1419 8.02479 43.3876 8.893 43.7281 10.0934L43.8482 10.5219C44.285 11.5265 44.3121 12.662 43.9236 13.6863C43.389 14.5978 41.8982 15.0137 39.8505 15.5009C39.0204 15.6911 38.182 15.8434 37.338 15.9573C34.9204 16.3174 32.8351 16.6287 28.0571 19.673C27.9073 19.7752 27.8032 19.9316 27.7667 20.1092C27.7302 20.2868 27.7643 20.4717 27.8617 20.6246C27.9591 20.7775 28.1122 20.8865 28.2886 20.9285C28.465 20.9705 28.6508 20.9423 28.8067 20.8497C33.3334 17.9645 35.2848 17.6742 37.5432 17.3378C38.4254 17.2184 39.3015 17.0582 40.1688 16.8576C41.7167 16.6304 43.191 16.048 44.4763 15.1561C44.5964 15.3962 44.729 15.6363 44.8755 15.8708C46.4375 18.3651 46.9944 20.5873 46.4054 21.9678ZM36.9933 21.6425C36.9933 21.8276 36.9197 22.0052 36.7888 22.136C36.658 22.2669 36.4804 22.3405 36.2953 22.3405C34.1051 22.4379 31.9621 23.0094 30.0141 24.0155C28.5783 24.6949 27.0738 25.2185 25.5265 25.5774C23.4913 25.9711 21.4229 26.1679 19.3499 26.165C15.8907 26.3167 12.4558 25.5192 9.41717 23.8591C9.26114 23.7595 9.15105 23.6021 9.11113 23.4213C9.07121 23.2405 9.10473 23.0513 9.20431 22.8953C9.30389 22.7393 9.46138 22.6292 9.64214 22.5893C9.82289 22.5493 10.0121 22.5829 10.1681 22.6824C14.4785 25.4378 21.9183 24.8865 25.2431 24.2095C26.6938 23.8702 28.1037 23.376 29.4488 22.7355C31.5737 21.6506 33.9086 21.0396 36.2925 20.9446C36.3844 20.9443 36.4755 20.962 36.5605 20.9969C36.6455 21.0319 36.7227 21.0832 36.7879 21.148C36.853 21.2129 36.9046 21.29 36.9399 21.3748C36.9751 21.4597 36.9933 21.5507 36.9933 21.6425ZM39.8226 41.2442C40.0608 41.7946 40.1575 42.3959 40.1038 42.9932C40.0502 43.5905 39.8479 44.1649 39.5155 44.664C39.3893 44.807 39.2342 44.9217 39.0606 45.0006C38.8869 45.0795 38.6985 45.1208 38.5077 45.1219C38.4011 45.122 38.2947 45.1099 38.1909 45.0856C37.1817 44.8497 36.2953 43.5055 35.6253 41.201C34.0718 35.8479 33.1561 33.4499 33.1463 33.4262C33.0799 33.2533 33.0848 33.0611 33.1601 32.8918C33.2354 32.7226 33.3748 32.5902 33.5476 32.5238C33.7205 32.4573 33.9127 32.4623 34.082 32.5375C34.2512 32.6128 34.3836 32.7522 34.45 32.9251C34.4863 33.0228 35.3922 35.3901 36.9625 40.8115C37.6437 43.1523 38.3584 43.7065 38.5091 43.7274C38.6485 43.4031 38.7189 43.0534 38.7161 42.7004C38.7132 42.3474 38.637 41.9989 38.4924 41.6769C38.464 41.5898 38.453 41.4979 38.4601 41.4065C38.4672 41.3151 38.4923 41.226 38.5338 41.1442C38.5753 41.0625 38.6326 40.9898 38.7022 40.9302C38.7719 40.8706 38.8526 40.8253 38.9397 40.7969C39.0269 40.7685 39.1188 40.7575 39.2102 40.7646C39.3016 40.7717 39.3907 40.7967 39.4724 40.8383C39.5542 40.8798 39.6269 40.937 39.6865 41.0067C39.7461 41.0764 39.7914 41.1571 39.8198 41.2442H39.8226ZM3.68728 38.239C5.31235 36.2545 6.40606 33.8894 6.86559 31.3659C6.89502 31.183 6.99589 31.0193 7.14602 30.9108C7.29614 30.8023 7.48322 30.7579 7.6661 30.7873C7.84898 30.8168 8.01267 30.9176 8.12118 31.0678C8.22968 31.2179 8.2741 31.405 8.24467 31.5879C7.749 34.3862 6.53013 37.0064 4.70903 39.1882C4.64793 39.2598 4.57297 39.3183 4.48868 39.3602C4.40438 39.402 4.31248 39.4264 4.21851 39.4319C4.12454 39.4373 4.03044 39.4237 3.94187 39.3918C3.8533 39.36 3.77209 39.3105 3.70313 39.2465C3.63417 39.1824 3.57888 39.105 3.54058 39.0191C3.50229 38.9331 3.48179 38.8402 3.4803 38.7461C3.47882 38.652 3.4964 38.5585 3.53197 38.4714C3.56754 38.3843 3.62036 38.3052 3.68728 38.239ZM30.5878 1.97804L30.7567 1.56627C30.7915 1.48149 30.8427 1.40441 30.9073 1.33941C30.9719 1.27441 31.0487 1.22278 31.1333 1.18746C31.2179 1.15214 31.3086 1.13382 31.4002 1.13356C31.4919 1.13329 31.5827 1.15108 31.6675 1.18591C31.7522 1.22073 31.8293 1.27192 31.8943 1.33654C31.9593 1.40116 32.0109 1.47795 32.0463 1.56252C32.0816 1.6471 32.0999 1.7378 32.1002 1.82945C32.1004 1.9211 32.0826 2.01191 32.0478 2.09669L31.8789 2.50846C31.8263 2.63657 31.7367 2.74613 31.6216 2.82318C31.5066 2.90024 31.3712 2.94131 31.2327 2.94117C31.1416 2.94124 31.0515 2.92321 30.9674 2.88813C30.7965 2.81765 30.6605 2.68224 30.5894 2.51161C30.5182 2.34099 30.5176 2.14909 30.5878 1.97804ZM32.7974 4.55056C32.7113 4.38691 32.6936 4.19577 32.7483 4.01911C32.803 3.84245 32.9256 3.69473 33.0891 3.60838L33.4841 3.4004C33.6474 3.31943 33.8359 3.30555 34.0093 3.36173C34.1827 3.41791 34.3272 3.5397 34.412 3.70105C34.4968 3.86239 34.5151 4.0505 34.463 4.22516C34.4109 4.39982 34.2925 4.54717 34.1332 4.63571L33.7396 4.84369C33.5757 4.92971 33.3845 4.94715 33.2078 4.89218C33.0311 4.83722 32.8835 4.71434 32.7974 4.55056ZM34.3956 6.55917C34.5644 6.59517 34.7139 6.69248 34.8152 6.83228C34.9165 6.97208 34.9624 7.14446 34.944 7.31611C34.9256 7.48776 34.8442 7.6465 34.7156 7.76166C34.587 7.87683 34.4203 7.94024 34.2477 7.93965C34.1975 7.93931 34.1475 7.93417 34.0983 7.92429L33.6628 7.82379C33.4818 7.78437 33.3238 7.67464 33.2237 7.51876C33.1236 7.36288 33.0895 7.1736 33.1289 6.99257C33.1683 6.81155 33.278 6.6536 33.4339 6.55347C33.5898 6.45334 33.7791 6.41924 33.9601 6.45867L34.3956 6.55917ZM26.1853 8.95302C26.2461 8.88217 26.3204 8.82421 26.4039 8.78259C26.4875 8.74097 26.5785 8.71652 26.6717 8.7107C26.7648 8.70488 26.8582 8.7178 26.9462 8.7487C27.0343 8.7796 27.1153 8.82785 27.1844 8.89059C27.2535 8.95334 27.3093 9.0293 27.3485 9.11399C27.3877 9.19868 27.4095 9.29038 27.4127 9.38365C27.4159 9.47693 27.4003 9.56989 27.3669 9.65704C27.3335 9.74419 27.2829 9.82375 27.2182 9.89102L26.9195 10.2204C26.7936 10.3514 26.6216 10.4281 26.4401 10.4342C26.2585 10.4403 26.0818 10.3755 25.9473 10.2533C25.8128 10.1312 25.7312 9.9615 25.7199 9.7802C25.7086 9.59891 25.7684 9.42035 25.8866 9.28244L26.1853 8.95302ZM24.1963 6.96675C24.1839 6.87582 24.1896 6.78334 24.213 6.6946C24.2364 6.60587 24.2771 6.52262 24.3327 6.44963C24.3883 6.37663 24.4578 6.31533 24.5371 6.26921C24.6165 6.2231 24.7041 6.19309 24.7951 6.1809L25.2348 6.12227C25.3256 6.1099 25.418 6.11554 25.5066 6.13886C25.5953 6.16219 25.6784 6.20275 25.7514 6.25822C25.8244 6.3137 25.8857 6.383 25.9319 6.46218C25.9781 6.54136 26.0082 6.62886 26.0206 6.71969C26.033 6.81051 26.0273 6.90289 26.004 6.99154C25.9807 7.08019 25.9401 7.16337 25.8847 7.23634C25.8292 7.30932 25.7599 7.37065 25.6807 7.41684C25.6015 7.46303 25.514 7.49317 25.4232 7.50554L24.9821 7.56556C24.9505 7.56765 24.9188 7.56765 24.8872 7.56556C24.7192 7.56559 24.5569 7.50505 24.43 7.39505C24.3031 7.28506 24.2201 7.13299 24.1963 6.96675ZM24.9877 3.32223C25.0366 3.24466 25.1003 3.17749 25.1752 3.12457C25.2501 3.07164 25.3347 3.03398 25.4241 3.01376C25.5136 2.99354 25.6061 2.99114 25.6965 3.00671C25.7869 3.02227 25.8733 3.0555 25.9508 3.10448L26.3277 3.34177C26.4843 3.44061 26.5952 3.59762 26.636 3.77824C26.6769 3.95886 26.6443 4.1483 26.5454 4.3049C26.4466 4.46149 26.2896 4.57241 26.109 4.61324C25.9284 4.65408 25.7389 4.62149 25.5823 4.52265L25.2054 4.28535C25.1279 4.23644 25.0607 4.17272 25.0078 4.09783C24.9548 4.02295 24.9172 3.93836 24.897 3.84892C24.8768 3.75947 24.8744 3.66692 24.8899 3.57655C24.9055 3.48617 24.9387 3.39976 24.9877 3.32223ZM27.4807 1.91663C27.4518 1.82916 27.4405 1.73684 27.4475 1.645C27.4545 1.55316 27.4796 1.46361 27.5213 1.38151C27.5631 1.29941 27.6207 1.22639 27.6908 1.16666C27.7609 1.10693 27.8422 1.06167 27.9298 1.03348C28.0175 1.00529 28.1099 0.994745 28.2017 1.00244C28.2935 1.01013 28.3829 1.03592 28.4646 1.07831C28.5464 1.1207 28.619 1.17886 28.6782 1.24943C28.7373 1.32001 28.782 1.4016 28.8095 1.4895L28.9491 1.90825C29.0057 2.08465 28.99 2.27633 28.9053 2.44111C28.8206 2.60589 28.6739 2.73029 28.4975 2.78693C28.3211 2.84357 28.1294 2.82781 27.9647 2.74313C27.7999 2.65845 27.6755 2.51178 27.6188 2.33538L27.4807 1.91663ZM18.4873 37.3275C18.3046 37.3276 18.1292 37.2559 17.9987 37.1281C17.8682 37.0002 17.793 36.8262 17.7894 36.6436L17.7768 36.0154C17.775 35.9238 17.7912 35.8327 17.8246 35.7473C17.8579 35.6619 17.9078 35.5839 17.9713 35.5178C18.0348 35.4517 18.1108 35.3988 18.1947 35.362C18.2787 35.3252 18.3691 35.3054 18.4608 35.3036C18.5538 35.2962 18.6472 35.3086 18.7351 35.34C18.8229 35.3714 18.9031 35.421 18.9704 35.4856C19.0376 35.5503 19.0904 35.6284 19.1253 35.7149C19.1602 35.8014 19.1763 35.8943 19.1727 35.9875L19.1852 36.6156C19.1871 36.7073 19.1708 36.7984 19.1375 36.8838C19.1041 36.9692 19.0542 37.0472 18.9907 37.1133C18.9272 37.1794 18.8513 37.2323 18.7673 37.2691C18.6833 37.3058 18.5929 37.3257 18.5013 37.3275H18.4873ZM21.205 37.9961C21.1244 37.9523 21.0532 37.893 20.9955 37.8216C20.9378 37.7502 20.8948 37.6682 20.8688 37.5801C20.8429 37.4921 20.8346 37.3998 20.8444 37.3086C20.8541 37.2173 20.8818 37.1289 20.9258 37.0484L21.2301 36.4984C21.2739 36.4172 21.3334 36.3454 21.4051 36.2873C21.4768 36.2292 21.5593 36.1859 21.6478 36.1599C21.7364 36.1339 21.8292 36.1257 21.921 36.1358C22.0127 36.1459 22.1015 36.1741 22.1823 36.2188C22.263 36.2635 22.3341 36.3237 22.3915 36.3961C22.4488 36.4684 22.4912 36.5514 22.5162 36.6402C22.5413 36.729 22.5484 36.822 22.5373 36.9136C22.5262 37.0052 22.497 37.0937 22.4515 37.174L22.1472 37.7239C22.0868 37.8331 21.9982 37.9242 21.8907 37.9875C21.7831 38.0508 21.6606 38.0842 21.5358 38.0841C21.418 38.084 21.3022 38.0537 21.1994 37.9961H21.205ZM23.811 40.2671C23.6586 40.267 23.5104 40.217 23.3891 40.1247C23.2679 40.0324 23.1801 39.903 23.1393 39.7562C23.0985 39.6093 23.1068 39.4532 23.1631 39.3116C23.2193 39.1699 23.3204 39.0506 23.4509 38.9718L23.9883 38.6466C24.1469 38.5509 24.3371 38.5221 24.5169 38.5666C24.6967 38.6111 24.8515 38.7252 24.9472 38.8839C25.0429 39.0425 25.0717 39.2327 25.0272 39.4125C24.9827 39.5923 24.8686 39.7471 24.7099 39.8428L24.1711 40.168C24.0623 40.2332 23.9378 40.2674 23.811 40.2671ZM26.0108 42.5689C26.0127 42.6606 25.9964 42.7519 25.963 42.8374C25.9295 42.9228 25.8795 43.0009 25.8158 43.067C25.7522 43.1331 25.6761 43.186 25.592 43.2227C25.5078 43.2594 25.4173 43.2791 25.3255 43.2807L24.6974 43.2919H24.689C24.5039 43.2936 24.3257 43.2216 24.1936 43.0919C24.0616 42.9622 23.9865 42.7854 23.9848 42.6003C23.9831 42.4152 24.0551 42.237 24.1848 42.1049C24.3145 41.9729 24.4913 41.8977 24.6764 41.8961L25.3045 41.8849H25.3185C25.5002 41.8863 25.6743 41.9586 25.8036 42.0863C25.9328 42.214 26.0072 42.3872 26.0108 42.5689ZM25.0882 46.2916C25.0444 46.3722 24.9851 46.4434 24.9137 46.5011C24.8423 46.5588 24.7602 46.6018 24.6722 46.6277C24.5842 46.6537 24.4919 46.662 24.4006 46.6522C24.3094 46.6424 24.221 46.6147 24.1404 46.5707L23.5905 46.2664C23.4278 46.1763 23.3075 46.0252 23.2562 45.8464C23.2049 45.6676 23.2267 45.4758 23.3169 45.3131C23.407 45.1504 23.5581 45.0302 23.7369 44.9788C23.9157 44.9275 24.1075 44.9494 24.2702 45.0395L24.8202 45.3438C24.9811 45.4342 25.0997 45.5847 25.1499 45.7623C25.2001 45.94 25.1779 46.1303 25.0882 46.2916ZM22.6664 48.0964C22.7172 48.1749 22.7517 48.2628 22.7679 48.3549C22.784 48.447 22.7815 48.5415 22.7605 48.6326C22.7394 48.7237 22.7003 48.8097 22.6453 48.8853C22.5904 48.961 22.5208 49.0249 22.4408 49.0732C22.3607 49.1215 22.2717 49.1532 22.1791 49.1664C22.0865 49.1796 21.9922 49.1741 21.9018 49.1502C21.8114 49.1262 21.7268 49.0844 21.6529 49.0271C21.5789 48.9698 21.5173 48.8982 21.4716 48.8166L21.1464 48.2778C21.055 48.1194 21.0295 47.9314 21.0753 47.7543C21.1212 47.5772 21.2347 47.4252 21.3915 47.331C21.5483 47.2368 21.7358 47.2079 21.9137 47.2505C22.0915 47.2932 22.2456 47.4039 22.3426 47.559L22.6664 48.0964ZM19.4169 48.7775L19.4295 49.4071C19.4313 49.4987 19.4151 49.5898 19.3817 49.6752C19.3484 49.7606 19.2985 49.8386 19.235 49.9047C19.1715 49.9708 19.0956 50.0237 19.0116 50.0605C18.9276 50.0973 18.8372 50.1171 18.7455 50.1189H18.7316C18.5486 50.119 18.373 50.0472 18.2425 49.919C18.1119 49.7908 18.0369 49.6165 18.0337 49.4336L18.0211 48.8055C18.0192 48.7137 18.0355 48.6225 18.069 48.537C18.1024 48.4515 18.1524 48.3735 18.2161 48.3073C18.2797 48.2412 18.3558 48.1883 18.44 48.1516C18.5241 48.1149 18.6147 48.0952 18.7064 48.0936H18.719C18.9017 48.0935 19.0771 48.1652 19.2076 48.293C19.3381 48.4209 19.4133 48.5949 19.4169 48.7775ZM16.2749 48.3728L15.972 48.9227C15.9277 49.003 15.8681 49.0738 15.7965 49.131C15.7248 49.1882 15.6427 49.2308 15.5546 49.2563C15.4665 49.2818 15.3743 49.2896 15.2832 49.2794C15.192 49.2693 15.1038 49.2413 15.0235 49.197C14.9433 49.1527 14.8725 49.0931 14.8152 49.0215C14.758 48.9498 14.7154 48.8676 14.69 48.7796C14.6645 48.6915 14.6566 48.5993 14.6668 48.5081C14.677 48.417 14.705 48.3288 14.7493 48.2485L15.0522 47.6986C15.1416 47.5364 15.2917 47.4164 15.4696 47.365C15.6475 47.3135 15.8385 47.3349 16.0006 47.4243C16.1628 47.5137 16.2828 47.6638 16.3342 47.8417C16.3856 48.0196 16.3643 48.2106 16.2749 48.3728ZM14.8623 37.8635L14.5371 37.3261C14.4414 37.1675 14.4126 36.9773 14.4571 36.7975C14.5016 36.6177 14.6158 36.4629 14.7744 36.3672C14.933 36.2715 15.1232 36.2427 15.303 36.2872C15.4828 36.3317 15.6376 36.4458 15.7333 36.6045L16.0585 37.1433C16.1541 37.3019 16.1826 37.492 16.138 37.6717C16.0934 37.8514 15.9792 38.006 15.8206 38.1015C15.6619 38.197 15.4719 38.2256 15.2921 38.181C15.1124 38.1363 14.9578 38.0221 14.8623 37.8635Z" fill="#B76E79"/>
<path d="M46.0634 15.1324C45.8219 14.7487 45.6203 14.3413 45.4618 13.9166C45.4395 13.8669 45.4114 13.8201 45.378 13.777C45.6787 12.5729 45.6136 11.3064 45.191 10.1395L45.0709 9.72073C44.6117 8.09598 44.3088 7.02398 43.3527 6.59267C42.0559 6.00921 40.2623 6.87183 34.9442 9.42202L34.3481 9.70119C31.1377 11.2366 23.6002 13.396 18.1007 10.5052C12.3987 7.50694 6.70088 6.15996 4.84024 7.37015C4.49381 7.61178 4.20122 7.92258 3.98092 8.28294C3.76062 8.6433 3.61739 9.04541 3.56026 9.4639C3.43959 10.2585 3.50506 11.0704 3.75149 11.8354C3.7028 12.2515 3.56204 12.6516 3.33943 13.0065C3.11682 13.3614 2.81795 13.6623 2.46453 13.8873C1.55317 14.5264 0.907615 15.4774 0.649945 16.5603C0.056716 18.9332 1.27388 22.4926 3.41509 25.2968C3.52664 28.1315 3.03518 30.9575 1.9732 33.5881C1.47803 34.9046 1.10698 36.2644 0.864903 37.65C0.672103 39.2318 0.583974 40.8247 0.601091 42.4181V42.4405C0.601091 43.3477 0.610862 44.2481 0.631799 45.14L0.65832 46.332C0.689029 47.5101 0.718341 48.631 0.714154 49.6276C0.714154 49.6485 0.723924 49.6681 0.72532 49.689C0.676466 50.1231 0.884445 50.6912 1.91597 51.2551C2.64441 51.6527 3.39681 52.0046 4.16884 52.309C4.72771 52.5211 5.26674 52.7822 5.77963 53.0893C5.87777 53.1477 5.98876 53.1812 6.10286 53.1868C6.21696 53.1923 6.33067 53.1698 6.43403 53.1212C6.53739 53.0725 6.62722 52.9992 6.69565 52.9078C6.76408 52.8163 6.80902 52.7094 6.82651 52.5965C6.82651 52.5965 6.98005 51.6041 7.11544 50.4246C8.61312 51.2303 9.93515 52.3264 11.0042 53.649C11.1149 53.7923 11.277 53.887 11.4562 53.913C11.6354 53.9391 11.8177 53.8944 11.9646 53.7886C12.1823 53.6322 14.0583 52.1136 13.1678 46.949C12.4238 42.7252 12.2703 36.2402 14.1449 31.4552C16.2047 31.9314 18.312 32.172 20.4261 32.1727C23.362 32.1586 26.2827 31.7496 29.1096 30.9569C29.3265 32.2754 29.4404 33.6087 29.4502 34.9448C29.4502 35.6916 29.4083 36.5193 29.3608 37.4406C29.1651 40.2847 29.1964 43.1398 29.4544 45.9789C29.6014 47.6347 29.6601 49.2972 29.6302 50.9592C29.6302 50.969 29.6219 50.976 29.6205 50.9871C29.6205 51.0231 29.6233 51.0591 29.6288 51.0946C29.5967 53.4326 29.4544 55.2668 29.453 55.2975C29.4408 55.4516 29.4801 55.6053 29.5647 55.7347C29.6493 55.864 29.7745 55.9616 29.9206 56.0121C31.588 56.4764 33.3434 56.5272 35.0349 56.1601C37.8786 55.595 40.8307 56.0769 43.3471 57.5169C43.4613 57.5937 43.596 57.6346 43.7337 57.6341C43.8141 57.6338 43.8938 57.6201 43.9696 57.5936C44.0723 57.5569 44.1649 57.4965 44.2401 57.4175C44.3152 57.3385 44.3708 57.243 44.4023 57.1386C44.957 54.7543 45.1164 52.2952 44.8741 49.8593C44.8942 49.75 44.8875 49.6374 44.8546 49.5313C44.3627 44.1927 43.5517 38.8884 42.4258 33.6467C42.0532 31.7526 41.76 30.2562 41.6805 29.5234C41.4342 28.2331 41.58 26.8985 42.0992 25.6919C42.5905 25.562 43.0986 25.4406 43.6346 25.3275C44.4912 25.2351 45.3111 24.9299 46.0196 24.4396C46.728 23.9493 47.3026 23.2896 47.6909 22.5205C48.6973 20.1671 47.3587 17.2038 46.0634 15.1324ZM11.5291 45.3954C9.17849 44.5077 4.86955 43.1802 2.0039 44.0136V42.7782C3.7822 42.0022 7.22292 42.5172 11.4174 44.2118C11.4495 44.6096 11.4816 45.013 11.5291 45.3954ZM5.58701 51.3975C5.29319 51.2586 4.99478 51.1297 4.69228 51.0109C3.96892 50.7256 3.26405 50.3956 2.58178 50.0226C2.50146 49.9798 2.42321 49.9332 2.34728 49.883C3.36569 49.6845 4.4126 49.6816 5.43207 49.8747C5.54513 49.89 5.6568 49.911 5.76567 49.9347C5.70565 50.4693 5.64284 50.9816 5.58701 51.3975ZM11.5207 52.1038C10.219 50.6229 8.58031 49.4768 6.74276 48.7622C6.37996 48.6374 6.00602 48.5476 5.62609 48.4942C4.45575 48.302 3.26138 48.3086 2.09324 48.5137C2.08347 47.8046 2.06811 47.069 2.04857 46.293C2.04857 46.0361 2.0374 45.7639 2.03042 45.5015C4.20653 44.5761 8.47359 45.6565 11.7594 46.9909C11.7705 47.0523 11.7775 47.1305 11.7887 47.1835C12.2136 48.8115 12.1199 50.5316 11.5207 52.1038ZM11.2988 42.6596C8.58107 41.6183 4.68809 40.4933 2.01507 41.2721C2.02753 40.126 2.10489 38.9814 2.24678 37.844C2.47857 36.5457 2.82948 35.2715 3.29505 34.0375C4.17738 31.7518 4.69822 29.3425 4.83884 26.8965C4.99936 27.0514 5.15011 27.2245 5.31621 27.3696C7.51564 29.1288 10.0597 30.407 12.7839 31.1216C11.5193 34.8289 11.0142 38.7529 11.2988 42.6596ZM43.5425 51.3263C41.2789 50.1919 38.7345 49.7395 36.2186 50.024C34.4994 50.2606 32.767 50.3888 31.0317 50.4079C31.0317 49.9598 31.0316 49.5034 31.0191 49.0358C32.815 49.0161 34.6079 48.8846 36.3875 48.6421C38.8495 48.3772 41.3326 48.8902 43.4881 50.1092C43.5048 50.5223 43.5244 50.9285 43.5327 51.3263H43.5425ZM43.2759 55.8823C40.6345 54.6022 37.6475 54.2185 34.7683 54.7894C33.4884 55.0496 32.1702 55.0596 30.8865 54.8187C30.927 54.1892 30.9842 53.0976 31.0149 51.8037C32.8122 51.7855 34.6067 51.654 36.3875 51.4101C38.8729 51.1449 41.3787 51.6704 43.5481 52.912C43.5396 53.9082 43.4462 54.902 43.2689 55.8823H43.2759ZM40.293 29.67C40.3795 30.4614 40.6769 31.9829 41.0551 33.9105C42.0685 38.723 42.839 43.5834 43.3638 48.4733C41.1431 47.3985 38.6628 46.9764 36.2116 47.2561C34.4722 47.4961 32.7191 47.6239 30.9633 47.6385C30.936 47.0388 30.8941 46.4398 30.8376 45.8421C30.5867 43.0716 30.5573 40.2855 30.7497 37.5104C30.7972 36.564 30.8404 35.7125 30.8404 34.9448C30.8304 33.4654 30.6997 31.9893 30.4496 30.5312C31.8208 30.012 33.1599 29.4117 34.4598 28.7334C36.3874 27.7261 38.3904 26.8702 40.4507 26.1734C40.1901 27.3202 40.1367 28.5044 40.293 29.67ZM46.4054 21.9678C46.0969 22.524 45.6569 22.9961 45.1237 23.3429C44.5906 23.6896 43.9806 23.9004 43.3471 23.9568C40.0276 24.6858 36.8255 25.8729 33.8331 27.4841C32.2453 28.3388 30.5795 29.0399 28.8583 29.5779C17.5828 32.7185 9.33063 29.0028 6.23328 26.3116C3.04519 23.5465 1.44557 19.13 2.0039 16.8967C2.18948 16.1069 2.66983 15.4178 3.3467 14.9705C3.85684 14.5987 4.2893 14.1307 4.61969 13.5928C4.63784 13.6193 4.6504 13.65 4.66994 13.6765C5.67486 14.8267 6.78006 15.8851 7.97249 16.8395C9.41551 18.0122 10.7583 19.3032 11.9869 20.699C12.0442 20.7705 12.115 20.8301 12.1953 20.8743C12.2756 20.9186 12.3639 20.9465 12.455 20.9566C12.5461 20.9667 12.6383 20.9588 12.7264 20.9333C12.8144 20.9077 12.8966 20.8651 12.9682 20.8078C13.0398 20.7506 13.0994 20.6797 13.1436 20.5994C13.1878 20.5191 13.2157 20.4309 13.2258 20.3397C13.236 20.2486 13.228 20.1564 13.2025 20.0684C13.177 19.9803 13.1343 19.8981 13.077 19.8266C11.7953 18.3611 10.3917 17.007 8.88117 15.7786C7.76496 14.8849 6.7269 13.8978 5.77824 12.8279C5.09824 11.9371 4.79727 10.814 4.94074 9.70258C4.96739 9.47306 5.04009 9.25128 5.1545 9.05053C5.26891 8.84978 5.42266 8.67419 5.60655 8.53427C6.53199 7.93406 11.2778 8.48961 17.4502 11.7349C23.4453 14.8881 31.5202 12.6031 34.9525 10.9546L35.5486 10.6685C39.7556 8.66129 42.0741 7.54463 42.779 7.86008C43.1419 8.02479 43.3876 8.893 43.7281 10.0934L43.8482 10.5219C44.285 11.5265 44.3121 12.662 43.9236 13.6863C43.389 14.5978 41.8982 15.0137 39.8505 15.5009C39.0204 15.6911 38.182 15.8434 37.338 15.9573C34.9204 16.3174 32.8351 16.6287 28.0571 19.673C27.9073 19.7752 27.8032 19.9316 27.7667 20.1092C27.7302 20.2868 27.7643 20.4717 27.8617 20.6246C27.9591 20.7775 28.1122 20.8865 28.2886 20.9285C28.465 20.9705 28.6508 20.9423 28.8067 20.8497C33.3334 17.9645 35.2848 17.6742 37.5432 17.3378C38.4254 17.2184 39.3015 17.0582 40.1688 16.8576C41.7167 16.6304 43.191 16.048 44.4763 15.1561C44.5964 15.3962 44.729 15.6363 44.8755 15.8708C46.4375 18.3651 46.9944 20.5873 46.4054 21.9678ZM36.9933 21.6425C36.9933 21.8276 36.9197 22.0052 36.7888 22.136C36.658 22.2669 36.4804 22.3405 36.2953 22.3405C34.1051 22.4379 31.9621 23.0094 30.0141 24.0155C28.5783 24.6949 27.0738 25.2185 25.5265 25.5774C23.4913 25.9711 21.4229 26.1679 19.3499 26.165C15.8907 26.3167 12.4558 25.5192 9.41717 23.8591C9.26114 23.7595 9.15105 23.6021 9.11113 23.4213C9.07121 23.2405 9.10473 23.0513 9.20431 22.8953C9.30389 22.7393 9.46138 22.6292 9.64214 22.5893C9.82289 22.5493 10.0121 22.5829 10.1681 22.6824C14.4785 25.4378 21.9183 24.8865 25.2431 24.2095C26.6938 23.8702 28.1037 23.376 29.4488 22.7355C31.5737 21.6506 33.9086 21.0396 36.2925 20.9446C36.3844 20.9443 36.4755 20.962 36.5605 20.9969C36.6455 21.0319 36.7227 21.0832 36.7879 21.148C36.853 21.2129 36.9046 21.29 36.9399 21.3748C36.9751 21.4597 36.9933 21.5507 36.9933 21.6425ZM39.8226 41.2442C40.0608 41.7946 40.1575 42.3959 40.1038 42.9932C40.0502 43.5905 39.8479 44.1649 39.5155 44.664C39.3893 44.807 39.2342 44.9217 39.0606 45.0006C38.8869 45.0795 38.6985 45.1208 38.5077 45.1219C38.4011 45.122 38.2947 45.1099 38.1909 45.0856C37.1817 44.8497 36.2953 43.5055 35.6253 41.201C34.0718 35.8479 33.1561 33.4499 33.1463 33.4262C33.0799 33.2533 33.0848 33.0611 33.1601 32.8918C33.2354 32.7226 33.3748 32.5902 33.5476 32.5238C33.7205 32.4573 33.9127 32.4623 34.082 32.5375C34.2512 32.6128 34.3836 32.7522 34.45 32.9251C34.4863 33.0228 35.3922 35.3901 36.9625 40.8115C37.6437 43.1523 38.3584 43.7065 38.5091 43.7274C38.6485 43.4031 38.7189 43.0534 38.7161 42.7004C38.7132 42.3474 38.637 41.9989 38.4924 41.6769C38.464 41.5898 38.453 41.4979 38.4601 41.4065C38.4672 41.3151 38.4923 41.226 38.5338 41.1442C38.5753 41.0625 38.6326 40.9898 38.7022 40.9302C38.7719 40.8706 38.8526 40.8253 38.9397 40.7969C39.0269 40.7685 39.1188 40.7575 39.2102 40.7646C39.3016 40.7717 39.3907 40.7967 39.4724 40.8383C39.5542 40.8798 39.6269 40.937 39.6865 41.0067C39.7461 41.0764 39.7914 41.1571 39.8198 41.2442H39.8226ZM3.68728 38.239C5.31235 36.2545 6.40606 33.8894 6.86559 31.3659C6.89502 31.183 6.99589 31.0193 7.14602 30.9108C7.29614 30.8023 7.48322 30.7579 7.6661 30.7873C7.84898 30.8168 8.01267 30.9176 8.12118 31.0678C8.22968 31.2179 8.2741 31.405 8.24467 31.5879C7.749 34.3862 6.53013 37.0064 4.70903 39.1882C4.64793 39.2598 4.57297 39.3183 4.48868 39.3602C4.40438 39.402 4.31248 39.4264 4.21851 39.4319C4.12454 39.4373 4.03044 39.4237 3.94187 39.3918C3.8533 39.36 3.77209 39.3105 3.70313 39.2465C3.63417 39.1824 3.57888 39.105 3.54058 39.0191C3.50229 38.9331 3.48179 38.8402 3.4803 38.7461C3.47882 38.652 3.4964 38.5585 3.53197 38.4714C3.56754 38.3843 3.62036 38.3052 3.68728 38.239ZM30.5878 1.97804L30.7567 1.56627C30.7915 1.48149 30.8427 1.40441 30.9073 1.33941C30.9719 1.27441 31.0487 1.22278 31.1333 1.18746C31.2179 1.15214 31.3086 1.13382 31.4002 1.13356C31.4919 1.13329 31.5827 1.15108 31.6675 1.18591C31.7522 1.22073 31.8293 1.27192 31.8943 1.33654C31.9593 1.40116 32.0109 1.47795 32.0463 1.56252C32.0816 1.6471 32.0999 1.7378 32.1002 1.82945C32.1004 1.9211 32.0826 2.01191 32.0478 2.09669L31.8789 2.50846C31.8263 2.63657 31.7367 2.74613 31.6216 2.82318C31.5066 2.90024 31.3712 2.94131 31.2327 2.94117C31.1416 2.94124 31.0515 2.92321 30.9674 2.88813C30.7965 2.81765 30.6605 2.68224 30.5894 2.51161C30.5182 2.34099 30.5176 2.14909 30.5878 1.97804ZM32.7974 4.55056C32.7113 4.38691 32.6936 4.19577 32.7483 4.01911C32.803 3.84245 32.9256 3.69473 33.0891 3.60838L33.4841 3.4004C33.6474 3.31943 33.8359 3.30555 34.0093 3.36173C34.1827 3.41791 34.3272 3.5397 34.412 3.70105C34.4968 3.86239 34.5151 4.0505 34.463 4.22516C34.4109 4.39982 34.2925 4.54717 34.1332 4.63571L33.7396 4.84369C33.5757 4.92971 33.3845 4.94715 33.2078 4.89218C33.0311 4.83722 32.8835 4.71434 32.7974 4.55056ZM34.3956 6.55917C34.5644 6.59517 34.7139 6.69248 34.8152 6.83228C34.9165 6.97208 34.9624 7.14446 34.944 7.31611C34.9256 7.48776 34.8442 7.6465 34.7156 7.76166C34.587 7.87683 34.4203 7.94024 34.2477 7.93965C34.1975 7.93931 34.1475 7.93417 34.0983 7.92429L33.6628 7.82379C33.4818 7.78437 33.3238 7.67464 33.2237 7.51876C33.1236 7.36288 33.0895 7.1736 33.1289 6.99257C33.1683 6.81155 33.278 6.6536 33.4339 6.55347C33.5898 6.45334 33.7791 6.41924 33.9601 6.45867L34.3956 6.55917ZM26.1853 8.95302C26.2461 8.88217 26.3204 8.82421 26.4039 8.78259C26.4875 8.74097 26.5785 8.71652 26.6717 8.7107C26.7648 8.70488 26.8582 8.7178 26.9462 8.7487C27.0343 8.7796 27.1153 8.82785 27.1844 8.89059C27.2535 8.95334 27.3093 9.0293 27.3485 9.11399C27.3877 9.19868 27.4095 9.29038 27.4127 9.38365C27.4159 9.47693 27.4003 9.56989 27.3669 9.65704C27.3335 9.74419 27.2829 9.82375 27.2182 9.89102L26.9195 10.2204C26.7936 10.3514 26.6216 10.4281 26.4401 10.4342C26.2585 10.4403 26.0818 10.3755 25.9473 10.2533C25.8128 10.1312 25.7312 9.9615 25.7199 9.7802C25.7086 9.59891 25.7684 9.42035 25.8866 9.28244L26.1853 8.95302ZM24.1963 6.96675C24.1839 6.87582 24.1896 6.78334 24.213 6.6946C24.2364 6.60587 24.2771 6.52262 24.3327 6.44963C24.3883 6.37663 24.4578 6.31533 24.5371 6.26921C24.6165 6.2231 24.7041 6.19309 24.7951 6.1809L25.2348 6.12227C25.3256 6.1099 25.418 6.11554 25.5066 6.13886C25.5953 6.16219 25.6784 6.20275 25.7514 6.25822C25.8244 6.3137 25.8857 6.383 25.9319 6.46218C25.9781 6.54136 26.0082 6.62886 26.0206 6.71969C26.033 6.81051 26.0273 6.90289 26.004 6.99154C25.9807 7.08019 25.9401 7.16337 25.8847 7.23634C25.8292 7.30932 25.7599 7.37065 25.6807 7.41684C25.6015 7.46303 25.514 7.49317 25.4232 7.50554L24.9821 7.56556C24.9505 7.56765 24.9188 7.56765 24.8872 7.56556C24.7192 7.56559 24.5569 7.50505 24.43 7.39505C24.3031 7.28506 24.2201 7.13299 24.1963 6.96675ZM24.9877 3.32223C25.0366 3.24466 25.1003 3.17749 25.1752 3.12457C25.2501 3.07164 25.3347 3.03398 25.4241 3.01376C25.5136 2.99354 25.6061 2.99114 25.6965 3.00671C25.7869 3.02227 25.8733 3.0555 25.9508 3.10448L26.3277 3.34177C26.4843 3.44061 26.5952 3.59762 26.636 3.77824C26.6769 3.95886 26.6443 4.1483 26.5454 4.3049C26.4466 4.46149 26.2896 4.57241 26.109 4.61324C25.9284 4.65408 25.7389 4.62149 25.5823 4.52265L25.2054 4.28535C25.1279 4.23644 25.0607 4.17272 25.0078 4.09783C24.9548 4.02295 24.9172 3.93836 24.897 3.84892C24.8768 3.75947 24.8744 3.66692 24.8899 3.57655C24.9055 3.48617 24.9387 3.39976 24.9877 3.32223ZM27.4807 1.91663C27.4518 1.82916 27.4405 1.73684 27.4475 1.645C27.4545 1.55316 27.4796 1.46361 27.5213 1.38151C27.5631 1.29941 27.6207 1.22639 27.6908 1.16666C27.7609 1.10693 27.8422 1.06167 27.9298 1.03348C28.0175 1.00529 28.1099 0.994745 28.2017 1.00244C28.2935 1.01013 28.3829 1.03592 28.4646 1.07831C28.5464 1.1207 28.619 1.17886 28.6782 1.24943C28.7373 1.32001 28.782 1.4016 28.8095 1.4895L28.9491 1.90825C29.0057 2.08465 28.99 2.27633 28.9053 2.44111C28.8206 2.60589 28.6739 2.73029 28.4975 2.78693C28.3211 2.84357 28.1294 2.82781 27.9647 2.74313C27.7999 2.65845 27.6755 2.51178 27.6188 2.33538L27.4807 1.91663ZM18.4873 37.3275C18.3046 37.3276 18.1292 37.2559 17.9987 37.1281C17.8682 37.0002 17.793 36.8262 17.7894 36.6436L17.7768 36.0154C17.775 35.9238 17.7912 35.8327 17.8246 35.7473C17.8579 35.6619 17.9078 35.5839 17.9713 35.5178C18.0348 35.4517 18.1108 35.3988 18.1947 35.362C18.2787 35.3252 18.3691 35.3054 18.4608 35.3036C18.5538 35.2962 18.6472 35.3086 18.7351 35.34C18.8229 35.3714 18.9031 35.421 18.9704 35.4856C19.0376 35.5503 19.0904 35.6284 19.1253 35.7149C19.1602 35.8014 19.1763 35.8943 19.1727 35.9875L19.1852 36.6156C19.1871 36.7073 19.1708 36.7984 19.1375 36.8838C19.1041 36.9692 19.0542 37.0472 18.9907 37.1133C18.9272 37.1794 18.8513 37.2323 18.7673 37.2691C18.6833 37.3058 18.5929 37.3257 18.5013 37.3275H18.4873ZM21.205 37.9961C21.1244 37.9523 21.0532 37.893 20.9955 37.8216C20.9378 37.7502 20.8948 37.6682 20.8688 37.5801C20.8429 37.4921 20.8346 37.3998 20.8444 37.3086C20.8541 37.2173 20.8818 37.1289 20.9258 37.0484L21.2301 36.4984C21.2739 36.4172 21.3334 36.3454 21.4051 36.2873C21.4768 36.2292 21.5593 36.1859 21.6478 36.1599C21.7364 36.1339 21.8292 36.1257 21.921 36.1358C22.0127 36.1459 22.1015 36.1741 22.1823 36.2188C22.263 36.2635 22.3341 36.3237 22.3915 36.3961C22.4488 36.4684 22.4912 36.5514 22.5162 36.6402C22.5413 36.729 22.5484 36.822 22.5373 36.9136C22.5262 37.0052 22.497 37.0937 22.4515 37.174L22.1472 37.7239C22.0868 37.8331 21.9982 37.9242 21.8907 37.9875C21.7831 38.0508 21.6606 38.0842 21.5358 38.0841C21.418 38.084 21.3022 38.0537 21.1994 37.9961H21.205ZM23.811 40.2671C23.6586 40.267 23.5104 40.217 23.3891 40.1247C23.2679 40.0324 23.1801 39.903 23.1393 39.7562C23.0985 39.6093 23.1068 39.4532 23.1631 39.3116C23.2193 39.1699 23.3204 39.0506 23.4509 38.9718L23.9883 38.6466C24.1469 38.5509 24.3371 38.5221 24.5169 38.5666C24.6967 38.6111 24.8515 38.7252 24.9472 38.8839C25.0429 39.0425 25.0717 39.2327 25.0272 39.4125C24.9827 39.5923 24.8686 39.7471 24.7099 39.8428L24.1711 40.168C24.0623 40.2332 23.9378 40.2674 23.811 40.2671ZM26.0108 42.5689C26.0127 42.6606 25.9964 42.7519 25.963 42.8374C25.9295 42.9228 25.8795 43.0009 25.8158 43.067C25.7522 43.1331 25.6761 43.186 25.592 43.2227C25.5078 43.2594 25.4173 43.2791 25.3255 43.2807L24.6974 43.2919H24.689C24.5039 43.2936 24.3257 43.2216 24.1936 43.0919C24.0616 42.9622 23.9865 42.7854 23.9848 42.6003C23.9831 42.4152 24.0551 42.237 24.1848 42.1049C24.3145 41.9729 24.4913 41.8977 24.6764 41.8961L25.3045 41.8849H25.3185C25.5002 41.8863 25.6743 41.9586 25.8036 42.0863C25.9328 42.214 26.0072 42.3872 26.0108 42.5689ZM25.0882 46.2916C25.0444 46.3722 24.9851 46.4434 24.9137 46.5011C24.8423 46.5588 24.7602 46.6018 24.6722 46.6277C24.5842 46.6537 24.4919 46.662 24.4006 46.6522C24.3094 46.6424 24.221 46.6147 24.1404 46.5707L23.5905 46.2664C23.4278 46.1763 23.3075 46.0252 23.2562 45.8464C23.2049 45.6676 23.2267 45.4758 23.3169 45.3131C23.407 45.1504 23.5581 45.0302 23.7369 44.9788C23.9157 44.9275 24.1075 44.9494 24.2702 45.0395L24.8202 45.3438C24.9811 45.4342 25.0997 45.5847 25.1499 45.7623C25.2001 45.94 25.1779 46.1303 25.0882 46.2916ZM22.6664 48.0964C22.7172 48.1749 22.7517 48.2628 22.7679 48.3549C22.784 48.447 22.7815 48.5415 22.7605 48.6326C22.7394 48.7237 22.7003 48.8097 22.6453 48.8853C22.5904 48.961 22.5208 49.0249 22.4408 49.0732C22.3607 49.1215 22.2717 49.1532 22.1791 49.1664C22.0865 49.1796 21.9922 49.1741 21.9018 49.1502C21.8114 49.1262 21.7268 49.0844 21.6529 49.0271C21.5789 48.9698 21.5173 48.8982 21.4716 48.8166L21.1464 48.2778C21.055 48.1194 21.0295 47.9314 21.0753 47.7543C21.1212 47.5772 21.2347 47.4252 21.3915 47.331C21.5483 47.2368 21.7358 47.2079 21.9137 47.2505C22.0915 47.2932 22.2456 47.4039 22.3426 47.559L22.6664 48.0964ZM19.4169 48.7775L19.4295 49.4071C19.4313 49.4987 19.4151 49.5898 19.3817 49.6752C19.3484 49.7606 19.2985 49.8386 19.235 49.9047C19.1715 49.9708 19.0956 50.0237 19.0116 50.0605C18.9276 50.0973 18.8372 50.1171 18.7455 50.1189H18.7316C18.5486 50.119 18.373 50.0472 18.2425 49.919C18.1119 49.7908 18.0369 49.6165 18.0337 49.4336L18.0211 48.8055C18.0192 48.7137 18.0355 48.6225 18.069 48.537C18.1024 48.4515 18.1524 48.3735 18.2161 48.3073C18.2797 48.2412 18.3558 48.1883 18.44 48.1516C18.5241 48.1149 18.6147 48.0952 18.7064 48.0936H18.719C18.9017 48.0935 19.0771 48.1652 19.2076 48.293C19.3381 48.4209 19.4133 48.5949 19.4169 48.7775ZM16.2749 48.3728L15.972 48.9227C15.9277 49.003 15.8681 49.0738 15.7965 49.131C15.7248 49.1882 15.6427 49.2308 15.5546 49.2563C15.4665 49.2818 15.3743 49.2896 15.2832 49.2794C15.192 49.2693 15.1038 49.2413 15.0235 49.197C14.9433 49.1527 14.8725 49.0931 14.8152 49.0215C14.758 48.9498 14.7154 48.8676 14.69 48.7796C14.6645 48.6915 14.6566 48.5993 14.6668 48.5081C14.677 48.417 14.705 48.3288 14.7493 48.2485L15.0522 47.6986C15.1416 47.5364 15.2917 47.4164 15.4696 47.365C15.6475 47.3135 15.8385 47.3349 16.0006 47.4243C16.1628 47.5137 16.2828 47.6638 16.3342 47.8417C16.3856 48.0196 16.3643 48.2106 16.2749 48.3728ZM14.8623 37.8635L14.5371 37.3261C14.4414 37.1675 14.4126 36.9773 14.4571 36.7975C14.5016 36.6177 14.6158 36.4629 14.7744 36.3672C14.933 36.2715 15.1232 36.2427 15.303 36.2872C15.4828 36.3317 15.6376 36.4458 15.7333 36.6045L16.0585 37.1433C16.1541 37.3019 16.1826 37.492 16.138 37.6717C16.0934 37.8514 15.9792 38.006 15.8206 38.1015C15.6619 38.197 15.4719 38.2256 15.2921 38.181C15.1124 38.1363 14.9578 38.0221 14.8623 37.8635Z" stroke="#B76E79" mask="url(#path-1-outside-1_168_174)"/>
</svg>
