<svg width="67" height="67" viewBox="0 0 67 67" fill="none" xmlns="http://www.w3.org/2000/svg">
<g clip-path="url(#clip0_168_175)">
<path d="M48.3166 48.4506H25.46C24.8254 48.4506 24.2167 48.1985 23.768 47.7497C23.3192 47.301 23.0671 46.6923 23.0671 46.0577C23.0671 45.4231 23.3192 44.8145 23.768 44.3657C24.2167 43.917 24.8254 43.6649 25.46 43.6649H48.3166C48.9512 43.6649 49.5598 43.917 50.0086 44.3657C50.4573 44.8145 50.7094 45.4231 50.7094 46.0577C50.7094 46.6923 50.4573 47.301 50.0086 47.7497C49.5598 48.1985 48.9512 48.4506 48.3166 48.4506ZM61.4869 48.4506H60.9126C60.278 48.4506 59.6693 48.1985 59.2206 47.7497C58.7718 47.301 58.5197 46.6923 58.5197 46.0577C58.5197 45.4231 58.7718 44.8145 59.2206 44.3657C59.6693 43.917 60.278 43.6649 60.9126 43.6649H61.4869C61.6443 43.6674 61.8007 43.6386 61.9469 43.5801C62.0932 43.5216 62.2263 43.4345 62.3385 43.3241C62.4507 43.2136 62.5399 43.0819 62.6007 42.9367C62.6616 42.7914 62.6929 42.6355 62.6929 42.478V34.2657C62.6921 33.9964 62.6012 33.7352 62.4346 33.5235C62.2681 33.3119 62.0356 33.1621 61.774 33.098H47.6657C46.0799 33.098 44.5588 32.4694 43.4357 31.3498C42.3126 30.2303 41.6791 28.7112 41.674 27.1254V14.2997C41.6766 14.1431 41.6477 13.9876 41.5889 13.8425C41.5302 13.6973 41.4429 13.5654 41.3321 13.4547C41.2214 13.344 41.0895 13.2567 40.9444 13.1979C40.7992 13.1392 40.6437 13.1103 40.4871 13.1129H12.2897C11.6551 13.1129 11.0465 12.8608 10.5977 12.412C10.149 11.9633 9.89685 11.3546 9.89685 10.72C9.89685 10.0854 10.149 9.47675 10.5977 9.028C11.0465 8.57925 11.6551 8.32715 12.2897 8.32715H40.4871C41.2715 8.32715 42.0481 8.48163 42.7728 8.78178C43.4974 9.08193 44.1558 9.52187 44.7104 10.0765C45.265 10.6311 45.7049 11.2895 46.0051 12.0141C46.3052 12.7387 46.4597 13.5154 46.4597 14.2997V27.0871C46.4597 27.2446 46.491 27.4005 46.5519 27.5458C46.6127 27.6911 46.7018 27.8228 46.8141 27.9332C46.9263 28.0437 47.0594 28.1307 47.2056 28.1892C47.3519 28.2477 47.5083 28.2765 47.6657 28.274H61.4869C61.9239 28.2797 62.3596 28.3245 62.7886 28.408L63.2097 28.542C64.4492 28.9044 65.5367 29.6612 66.3071 30.6976C67.0775 31.7341 67.4888 32.9935 67.4786 34.2849V42.4971C67.4685 44.0796 66.8327 45.5938 65.7102 46.7092C64.5876 47.8246 63.0694 48.4506 61.4869 48.4506Z" fill="#B76E79"/>
<path d="M62.31 33.1746C61.8181 33.1745 61.3383 33.0215 60.9371 32.7369C60.5359 32.4522 60.233 32.05 60.0703 31.5857L56.2417 20.9423C56.1387 20.7986 56.0039 20.6807 55.8479 20.5977C55.6918 20.5147 55.5187 20.4689 55.342 20.4637H44.0286C43.394 20.4637 42.7853 20.2116 42.3366 19.7628C41.8878 19.3141 41.6357 18.7055 41.6357 18.0708C41.6357 17.4362 41.8878 16.8276 42.3366 16.3788C42.7853 15.9301 43.394 15.678 44.0286 15.678H55.342C56.4028 15.6821 57.4429 15.9724 58.3525 16.5182C59.2622 17.0639 60.0077 17.8451 60.5106 18.7791C60.5696 18.8903 60.6207 19.0054 60.6637 19.1237L64.4923 29.9777C64.7016 30.577 64.6663 31.2346 64.3939 31.8079C64.1216 32.3813 63.6342 32.8242 63.0375 33.0406C62.8016 33.1156 62.5572 33.1606 62.31 33.1746ZM54.6146 58.6729C52.8919 58.6729 51.2079 58.162 49.7756 57.205C48.3432 56.2479 47.2268 54.8876 46.5676 53.296C45.9084 51.7045 45.7359 49.9532 46.0719 48.2636C46.408 46.574 47.2376 45.0221 48.4557 43.8039C49.6738 42.5858 51.2258 41.7563 52.9154 41.4202C54.6049 41.0841 56.3562 41.2566 57.9478 41.9159C59.5393 42.5751 60.8996 43.6915 61.8567 45.1238C62.8138 46.5562 63.3246 48.2402 63.3246 49.9629C63.3246 52.2729 62.4069 54.4883 60.7735 56.1218C59.14 57.7552 56.9246 58.6729 54.6146 58.6729ZM54.6146 46.0386C53.8346 46.0195 53.0667 46.2334 52.4089 46.6529C51.7511 47.0724 51.2333 47.6784 50.9215 48.3936C50.6098 49.1088 50.5183 49.9006 50.6587 50.6681C50.7991 51.4355 51.1651 52.1437 51.7099 52.7021C52.2548 53.2605 52.9537 53.6439 53.7174 53.8033C54.4811 53.9626 55.275 53.8907 55.9977 53.5967C56.7204 53.3027 57.339 52.7999 57.7746 52.1527C58.2102 51.5054 58.4429 50.743 58.4432 49.9629C58.4435 48.9384 58.0432 47.9545 57.3278 47.2213C56.6124 46.488 55.6387 46.0635 54.6146 46.0386ZM19.1429 58.6729C17.4202 58.6729 15.7362 58.162 14.3038 57.205C12.8715 56.2479 11.7551 54.8876 11.0959 53.296C10.4366 51.7045 10.2641 49.9532 10.6002 48.2636C10.9363 46.574 11.7659 45.0221 12.984 43.8039C14.2021 42.5858 15.7541 41.7563 17.4436 41.4202C19.1332 41.0841 20.8845 41.2566 22.476 41.9159C24.0676 42.5751 25.4279 43.6915 26.385 45.1238C27.342 46.5562 27.8529 48.2402 27.8529 49.9629C27.8529 52.2729 26.9352 54.4883 25.3018 56.1218C23.6683 57.7552 21.4529 58.6729 19.1429 58.6729ZM19.1429 46.0386C18.3667 46.0386 17.608 46.2687 16.9627 46.6999C16.3173 47.1311 15.8143 47.744 15.5173 48.4611C15.2203 49.1782 15.1426 49.9672 15.294 50.7284C15.4454 51.4897 15.8192 52.1889 16.368 52.7377C16.9168 53.2866 17.616 53.6603 18.3773 53.8117C19.1385 53.9632 19.9276 53.8854 20.6446 53.5884C21.3617 53.2914 21.9746 52.7884 22.4058 52.1431C22.837 51.4977 23.0672 50.739 23.0672 49.9629C23.0672 48.9221 22.6537 47.9239 21.9178 47.188C21.1818 46.452 20.1837 46.0386 19.1429 46.0386Z" fill="#B76E79"/>
<path d="M44.0285 48.4506C43.7136 48.4531 43.4013 48.393 43.1098 48.2736C42.8183 48.1543 42.5535 47.9781 42.3308 47.7554C42.1081 47.5327 41.932 47.2679 41.8126 46.9764C41.6933 46.6849 41.6331 46.3726 41.6357 46.0577V25.1346C41.6357 24.4999 41.8878 23.8913 42.3365 23.4426C42.7853 22.9938 43.3939 22.7417 44.0285 22.7417C44.6632 22.7417 45.2718 22.9938 45.7205 23.4426C46.1693 23.8913 46.4214 24.4999 46.4214 25.1346V46.0577C46.4239 46.3726 46.3638 46.6849 46.2444 46.9764C46.1251 47.2679 45.9489 47.5327 45.7262 47.7554C45.5035 47.9781 45.2387 48.1543 44.9472 48.2736C44.6558 48.393 44.3435 48.4531 44.0285 48.4506ZM19.5065 25.2111H3.82853C3.1939 25.2111 2.58527 24.959 2.13652 24.5103C1.68777 24.0615 1.43567 23.4529 1.43567 22.8183C1.43567 22.1836 1.68777 21.575 2.13652 21.1263C2.58527 20.6775 3.1939 20.4254 3.82853 20.4254H19.5065C20.1411 20.4254 20.7498 20.6775 21.1985 21.1263C21.6473 21.575 21.8994 22.1836 21.8994 22.8183C21.8994 23.4529 21.6473 24.0615 21.1985 24.5103C20.7498 24.959 20.1411 25.2111 19.5065 25.2111ZM22.4545 35.8928H14.2614C13.6268 35.8928 13.0181 35.6407 12.5694 35.192C12.1206 34.7432 11.8685 34.1346 11.8685 33.5C11.8685 32.8654 12.1206 32.2567 12.5694 31.808C13.0181 31.3592 13.6268 31.1071 14.2614 31.1071H22.4545C23.0891 31.1071 23.6978 31.3592 24.1465 31.808C24.5953 32.2567 24.8474 32.8654 24.8474 33.5C24.8474 34.1346 24.5953 34.7432 24.1465 35.192C23.6978 35.6407 23.0891 35.8928 22.4545 35.8928Z" fill="#B76E79"/>
</g>
<defs>
<clipPath id="clip0_168_175">
<rect width="67" height="67" fill="white"/>
</clipPath>
</defs>
</svg>
