<svg width="67" height="67" viewBox="0 0 67 67" fill="none" xmlns="http://www.w3.org/2000/svg">
<path d="M11.5156 52.3438H8.375C7.26441 52.3438 6.1993 51.9026 5.41399 51.1173C4.62868 50.332 4.1875 49.2668 4.1875 48.1562V39.7812C4.1875 38.6707 4.62868 37.6055 5.41399 36.8202C6.1993 36.0349 7.26441 35.5938 8.375 35.5938H11.5156C11.7933 35.5938 12.0596 35.704 12.2559 35.9004C12.4522 36.0967 12.5625 36.363 12.5625 36.6406V51.2969C12.5625 51.5745 12.4522 51.8408 12.2559 52.0371C12.0596 52.2335 11.7933 52.3438 11.5156 52.3438ZM8.375 37.6875C7.8197 37.6875 7.28715 37.9081 6.8945 38.3007C6.50184 38.6934 6.28125 39.226 6.28125 39.7812V48.1562C6.28125 48.7115 6.50184 49.2441 6.8945 49.6368C7.28715 50.0294 7.8197 50.25 8.375 50.25H10.4688V37.6875H8.375Z" fill="#B76E79"/>
<path d="M14.6562 55.4844C13.5457 55.4844 12.4805 55.0432 11.6952 54.2579C10.9099 53.4726 10.4688 52.4075 10.4688 51.2969V36.6406C10.4688 35.53 10.9099 34.4649 11.6952 33.6796C12.4805 32.8943 13.5457 32.4531 14.6562 32.4531C15.7668 32.4531 16.832 32.8943 17.6173 33.6796C18.4026 34.4649 18.8438 35.53 18.8438 36.6406V51.2969C18.8438 52.4075 18.4026 53.4726 17.6173 54.2579C16.832 55.0432 15.7668 55.4844 14.6562 55.4844ZM14.6562 34.5469C14.101 34.5469 13.5684 34.7675 13.1757 35.1601C12.7831 35.5528 12.5625 36.0853 12.5625 36.6406V51.2969C12.5625 51.8522 12.7831 52.3847 13.1757 52.7774C13.5684 53.17 14.101 53.3906 14.6562 53.3906C15.2115 53.3906 15.7441 53.17 16.1368 52.7774C16.5294 52.3847 16.75 51.8522 16.75 51.2969V36.6406C16.75 36.0853 16.5294 35.5528 16.1368 35.1601C15.7441 34.7675 15.2115 34.5469 14.6562 34.5469ZM58.625 52.3438H55.4844C55.2067 52.3438 54.9404 52.2335 54.7441 52.0371C54.5478 51.8408 54.4375 51.5745 54.4375 51.2969V36.6406C54.4375 36.363 54.5478 36.0967 54.7441 35.9004C54.9404 35.704 55.2067 35.5938 55.4844 35.5938H58.625C59.7356 35.5938 60.8007 36.0349 61.586 36.8202C62.3713 37.6055 62.8125 38.6707 62.8125 39.7812V48.1562C62.8125 49.2668 62.3713 50.332 61.586 51.1173C60.8007 51.9026 59.7356 52.3438 58.625 52.3438ZM56.5312 50.25H58.625C59.1803 50.25 59.7129 50.0294 60.1055 49.6368C60.4982 49.2441 60.7188 48.7115 60.7188 48.1562V39.7812C60.7188 39.226 60.4982 38.6934 60.1055 38.3007C59.7129 37.9081 59.1803 37.6875 58.625 37.6875H56.5312V50.25Z" fill="#B76E79"/>
<path d="M52.3438 55.4844C51.2332 55.4844 50.168 55.0432 49.3827 54.2579C48.5974 53.4726 48.1562 52.4075 48.1562 51.2969V36.6406C48.1562 35.53 48.5974 34.4649 49.3827 33.6796C50.168 32.8943 51.2332 32.4531 52.3438 32.4531C53.4543 32.4531 54.5195 32.8943 55.3048 33.6796C56.0901 34.4649 56.5312 35.53 56.5312 36.6406V51.2969C56.5312 52.4075 56.0901 53.4726 55.3048 54.2579C54.5195 55.0432 53.4543 55.4844 52.3438 55.4844ZM52.3438 34.5469C51.7885 34.5469 51.2559 34.7675 50.8632 35.1601C50.4706 35.5528 50.25 36.0853 50.25 36.6406V51.2969C50.25 51.8522 50.4706 52.3847 50.8632 52.7774C51.2559 53.17 51.7885 53.3906 52.3438 53.3906C52.899 53.3906 53.4316 53.17 53.8243 52.7774C54.2169 52.3847 54.4375 51.8522 54.4375 51.2969V36.6406C54.4375 36.0853 54.2169 35.5528 53.8243 35.1601C53.4316 34.7675 52.899 34.5469 52.3438 34.5469ZM35.5938 62.8125H31.4062C30.5733 62.8125 29.7745 62.4816 29.1855 61.8926C28.5965 61.3036 28.2656 60.5048 28.2656 59.6719C28.2656 58.8389 28.5965 58.0401 29.1855 57.4511C29.7745 56.8621 30.5733 56.5312 31.4062 56.5312H35.5938C36.4267 56.5312 37.2255 56.8621 37.8145 57.4511C38.4035 58.0401 38.7344 58.8389 38.7344 59.6719C38.7344 60.5048 38.4035 61.3036 37.8145 61.8926C37.2255 62.4816 36.4267 62.8125 35.5938 62.8125ZM31.4062 58.625C31.1286 58.625 30.8623 58.7353 30.666 58.9316C30.4697 59.1279 30.3594 59.3942 30.3594 59.6719C30.3594 59.9495 30.4697 60.2158 30.666 60.4121C30.8623 60.6085 31.1286 60.7188 31.4062 60.7188H35.5938C35.8714 60.7188 36.1377 60.6085 36.334 60.4121C36.5303 60.2158 36.6406 59.9495 36.6406 59.6719C36.6406 59.3942 36.5303 59.1279 36.334 58.9316C36.1377 58.7353 35.8714 58.625 35.5938 58.625H31.4062Z" fill="#B76E79"/>
<path d="M52.3438 60.7188H37.6875C37.4099 60.7188 37.1436 60.6085 36.9472 60.4121C36.7509 60.2158 36.6406 59.9495 36.6406 59.6719C36.6406 59.3942 36.7509 59.128 36.9472 58.9316C37.1436 58.7353 37.4099 58.625 37.6875 58.625H52.3438C53.732 58.625 55.0634 58.0735 56.045 57.0919C57.0266 56.1103 57.5781 54.7789 57.5781 53.3906V51.2969C57.5781 51.0192 57.6884 50.753 57.8847 50.5566C58.0811 50.3603 58.3474 50.25 58.625 50.25C58.9026 50.25 59.1689 50.3603 59.3653 50.5566C59.5616 50.753 59.6719 51.0192 59.6719 51.2969V53.3906C59.6719 55.3342 58.8998 57.1981 57.5255 58.5724C56.1512 59.9467 54.2873 60.7188 52.3438 60.7188ZM57.5781 37.6875C57.3005 37.6875 57.0342 37.5772 56.8379 37.3809C56.6415 37.1846 56.5312 36.9183 56.5312 36.6406V29.3125C56.5324 28.3077 56.466 27.3039 56.3323 26.308C56.3145 26.1705 56.3239 26.0309 56.36 25.897C56.3961 25.7632 56.4582 25.6377 56.5427 25.5279C56.6273 25.418 56.7327 25.3259 56.8529 25.2568C56.973 25.1877 57.1056 25.1429 57.2431 25.125C57.3806 25.1071 57.5203 25.1165 57.6541 25.1526C57.788 25.1887 57.9134 25.2508 58.0232 25.3354C58.1331 25.42 58.2252 25.5254 58.2943 25.6455C58.3634 25.7657 58.4082 25.8983 58.4261 26.0358C58.5652 27.1224 58.6317 28.2171 58.625 29.3125V36.6406C58.625 36.9183 58.5147 37.1846 58.3184 37.3809C58.1221 37.5772 57.8558 37.6875 57.5781 37.6875ZM9.42188 37.6875C9.14423 37.6875 8.87795 37.5772 8.68162 37.3809C8.4853 37.1846 8.375 36.9183 8.375 36.6406V29.3125C8.37525 28.2166 8.44869 27.1219 8.59484 26.0358C8.61272 25.8983 8.65749 25.7657 8.72661 25.6455C8.79573 25.5254 8.88785 25.42 8.9977 25.3354C9.10755 25.2508 9.23298 25.1887 9.36683 25.1526C9.50068 25.1165 9.64034 25.1071 9.77781 25.125C9.91529 25.1429 10.0479 25.1877 10.1681 25.2568C10.2882 25.3259 10.3936 25.418 10.4782 25.5279C10.5628 25.6377 10.6249 25.7632 10.661 25.897C10.6971 26.0309 10.7065 26.1705 10.6886 26.308C10.548 27.3034 10.4745 28.3072 10.4688 29.3125V36.6406C10.4688 36.9183 10.3585 37.1846 10.1621 37.3809C9.9658 37.5772 9.69952 37.6875 9.42188 37.6875Z" fill="#B76E79"/>
<path d="M57.3687 27.2187C55.7497 27.1956 54.1722 26.7037 52.827 25.8026C51.4818 24.9015 50.4267 23.6297 49.7893 22.1413C48.39 18.9667 46.0934 16.2703 43.1818 14.3837C40.2702 12.4971 36.8708 11.5027 33.4015 11.5227C29.9322 11.5428 26.5444 12.5764 23.6548 14.4964C20.7652 16.4164 18.4998 19.1392 17.1373 22.3298C16.5494 23.7619 15.5529 24.9892 14.2721 25.8586C12.9912 26.728 11.4827 27.201 9.9348 27.2187H9.6312C9.48149 27.22 9.33324 27.1891 9.19646 27.1282C9.05969 27.0673 8.93757 26.9778 8.83834 26.8656C8.73912 26.7535 8.6651 26.6214 8.62128 26.4782C8.57746 26.3351 8.56486 26.1842 8.58433 26.0357C9.38808 19.9999 12.3564 14.4613 16.9374 10.4499C21.5185 6.43848 27.4004 4.22717 33.4895 4.22717C39.5786 4.22717 45.4605 6.43848 50.0415 10.4499C54.6225 14.4613 57.5909 19.9999 58.3946 26.0357C58.4141 26.1842 58.4015 26.3351 58.3577 26.4782C58.3138 26.6214 58.2398 26.7535 58.1406 26.8656C58.0414 26.9778 57.9193 27.0673 57.7825 27.1282C57.6457 27.1891 57.4975 27.22 57.3477 27.2187H57.3687ZM33.4999 6.28119C28.1324 6.28079 22.9333 8.15514 18.8008 11.5804C14.6683 15.0057 11.8619 19.7668 10.8665 25.0412C11.8281 24.86 12.7292 24.4414 13.488 23.8235C14.2467 23.2055 14.839 22.4078 15.211 21.5028C16.4855 18.509 18.4749 15.8736 21.0048 13.8276C23.5348 11.7815 26.528 10.3874 29.7222 9.7674C32.9163 9.14739 36.2137 9.32041 39.3254 10.2713C42.4371 11.2222 45.268 12.922 47.5699 15.2215C49.3268 16.9631 50.7465 19.0146 51.7574 21.2724C52.1522 22.1919 52.7578 23.0055 53.5252 23.6475C54.2927 24.2895 55.2005 24.7418 56.1752 24.9679C55.2989 20.4397 53.0898 16.2766 49.8312 13.0126C47.6918 10.8631 45.1461 9.16093 42.3422 8.00524C39.5384 6.84956 36.5326 6.26349 33.4999 6.28119Z" fill="#B76E79"/>
<path d="M31.4063 33.5H26.1719C25.8942 33.5 25.628 33.3897 25.4316 33.1934C25.2353 32.9971 25.125 32.7308 25.125 32.4531V31.4062C25.1242 31.2685 25.1506 31.1319 25.2027 31.0043C25.2548 30.8768 25.3316 30.7608 25.4286 30.663L30.0139 26.0777C30.1771 25.9137 30.2881 25.7051 30.333 25.4782C30.3779 25.2513 30.3547 25.0162 30.2663 24.8025C30.1779 24.5887 30.0282 24.4059 29.8362 24.277C29.6441 24.1481 29.4182 24.0789 29.1869 24.0781H28.3913C28.0803 24.0781 27.7821 24.2017 27.5622 24.4215C27.3423 24.6414 27.2188 24.9397 27.2188 25.2506V26.1719C27.2188 26.4495 27.1085 26.7158 26.9121 26.9121C26.7158 27.1085 26.4495 27.2188 26.1719 27.2188C25.8942 27.2188 25.628 27.1085 25.4316 26.9121C25.2353 26.7158 25.125 26.4495 25.125 26.1719V25.2506C25.125 24.8217 25.2095 24.397 25.3736 24.0007C25.5378 23.6044 25.7784 23.2443 26.0817 22.941C26.385 22.6377 26.745 22.3971 27.1413 22.233C27.5376 22.0689 27.9623 21.9844 28.3913 21.9844H29.1869C30.0532 21.9844 30.8839 22.3285 31.4965 22.941C32.109 23.5536 32.4531 24.3844 32.4531 25.2506C32.4559 25.6802 32.3731 26.106 32.2096 26.5033C32.046 26.9005 31.8049 27.2612 31.5005 27.5642L27.648 31.4062H31.4063C31.6839 31.4062 31.9502 31.5165 32.1465 31.7129C32.3428 31.9092 32.4531 32.1755 32.4531 32.4531C32.4531 32.7308 32.3428 32.9971 32.1465 33.1934C31.9502 33.3897 31.6839 33.5 31.4063 33.5ZM40.8281 29.3125H38.7344C37.6238 29.3125 36.5587 28.8713 35.7734 28.086C34.9881 27.3007 34.5469 26.2356 34.5469 25.125V23.0312C34.5469 22.7536 34.6572 22.4873 34.8535 22.291C35.0498 22.0947 35.3161 21.9844 35.5938 21.9844C35.8714 21.9844 36.1377 22.0947 36.334 22.291C36.5303 22.4873 36.6406 22.7536 36.6406 23.0312V25.125C36.6406 25.6803 36.8612 26.2129 37.2539 26.6055C37.6465 26.9982 38.1791 27.2188 38.7344 27.2188H39.7813V23.0312C39.7813 22.7536 39.8916 22.4873 40.0879 22.291C40.2842 22.0947 40.5505 21.9844 40.8281 21.9844C41.1058 21.9844 41.3721 22.0947 41.5684 22.291C41.7647 22.4873 41.875 22.7536 41.875 23.0312V28.2656C41.875 28.5433 41.7647 28.8096 41.5684 29.0059C41.3721 29.2022 41.1058 29.3125 40.8281 29.3125Z" fill="#B76E79"/>
<path d="M40.8281 33.5C40.5505 33.5 40.2842 33.3897 40.0879 33.1934C39.8915 32.9971 39.7812 32.7308 39.7812 32.4531V28.2656C39.7812 27.988 39.8915 27.7217 40.0879 27.5254C40.2842 27.329 40.5505 27.2188 40.8281 27.2188C41.1058 27.2188 41.3721 27.329 41.5684 27.5254C41.7647 27.7217 41.875 27.988 41.875 28.2656V32.4531C41.875 32.7308 41.7647 32.9971 41.5684 33.1934C41.3721 33.3897 41.1058 33.5 40.8281 33.5Z" fill="#B76E79"/>
<path d="M33.5 41.875C30.8083 41.875 28.1771 41.0768 25.939 39.5814C23.701 38.086 21.9566 35.9605 20.9266 33.4737C19.8965 30.9869 19.627 28.2505 20.1521 25.6106C20.6773 22.9706 21.9734 20.5457 23.8767 18.6423C25.78 16.739 28.205 15.4429 30.8449 14.9178C33.4849 14.3926 36.2213 14.6621 38.7081 15.6922C41.1949 16.7223 43.3204 18.4666 44.8158 20.7047C46.3112 22.9427 47.1094 25.5739 47.1094 28.2656C47.1094 28.5433 46.9991 28.8096 46.8028 29.0059C46.6064 29.2022 46.3402 29.3125 46.0625 29.3125C45.7849 29.3125 45.5186 29.2022 45.3222 29.0059C45.1259 28.8096 45.0156 28.5433 45.0156 28.2656C45.0156 25.9881 44.3402 23.7616 43.0749 21.8679C41.8095 19.9742 40.011 18.4982 37.9068 17.6266C35.8026 16.755 33.4872 16.5269 31.2534 16.9713C29.0196 17.4156 26.9677 18.5124 25.3572 20.1229C23.7467 21.7333 22.65 23.7852 22.2057 26.019C21.7613 28.2529 21.9894 30.5683 22.861 32.6725C23.7325 34.7767 25.2085 36.5752 27.1023 37.8405C28.996 39.1059 31.2224 39.7813 33.5 39.7813C33.7777 39.7813 34.0439 39.8915 34.2403 40.0879C34.4366 40.2842 34.5469 40.5505 34.5469 40.8281C34.5469 41.1058 34.4366 41.3721 34.2403 41.5684C34.0439 41.7647 33.7777 41.875 33.5 41.875Z" fill="#B76E79"/>
<path d="M32.4531 45.0156C32.3153 45.0164 32.1787 44.99 32.0512 44.9379C31.9236 44.8858 31.8076 44.8091 31.7098 44.712C31.6117 44.6147 31.5338 44.4989 31.4807 44.3714C31.4275 44.2438 31.4001 44.107 31.4001 43.9688C31.4001 43.8306 31.4275 43.6937 31.4807 43.5662C31.5338 43.4386 31.6117 43.3228 31.7098 43.2255L34.1176 40.8281L31.7098 38.4308C31.5127 38.2337 31.4019 37.9663 31.4019 37.6875C31.4019 37.4087 31.5127 37.1414 31.7098 36.9442C31.9069 36.7471 32.1743 36.6364 32.4531 36.6364C32.7319 36.6364 32.9992 36.7471 33.1964 36.9442L36.337 40.0849C36.4351 40.1822 36.513 40.298 36.5661 40.4255C36.6193 40.5531 36.6467 40.6899 36.6467 40.8281C36.6467 40.9663 36.6193 41.1032 36.5661 41.2307C36.513 41.3583 36.4351 41.4741 36.337 41.5714L33.1964 44.712C33.0986 44.8091 32.9825 44.8858 32.855 44.9379C32.7274 44.99 32.5909 45.0164 32.4531 45.0156Z" fill="#B76E79"/>
</svg>
