<svg id="Layer_1" data-name="Layer 1" xmlns="http://www.w3.org/2000/svg" viewBox="0 0 426.91 252.69"><defs><style>.cls-1{fill:#a7a9ac;}.cls-2,.cls-3,.cls-4{fill:none;}.cls-2{stroke:#a09f9f;}.cls-2,.cls-3,.cls-4,.cls-5{stroke-miterlimit:10;}.cls-2,.cls-3{stroke-width:0.94px;}.cls-3{stroke:#939598;}.cls-4,.cls-5{stroke:#1e1d1e;stroke-width:1.89px;}.cls-5{fill:#1e1d1e;}.cls-6{font-size:62.31px;fill:#231f20;font-family:BOOWIE;}.cls-7{letter-spacing:0.05em;}.cls-8{letter-spacing:-0.07em;}.cls-9{letter-spacing:0em;}.cls-10{letter-spacing:-0.06em;}.cls-11{letter-spacing:0.04em;}</style></defs><path class="cls-1" d="M345.67,381.44c-2.26.77-3.92,3.49-3,5.66s4.22,3,6.38,1.68c1.76-1,3-3.51,1.93-5.54S347.46,380.83,345.67,381.44Z" transform="translate(-167.21 -381.17)"/><path class="cls-1" d="M325.08,407.81c-2.27.78-3.93,3.49-3,5.67s4.23,3,6.39,1.68c1.75-1,3-3.51,1.93-5.54S326.86,407.2,325.08,407.81Z" transform="translate(-167.21 -381.17)"/><path class="cls-1" d="M348.24,432.43c-1.06,2.15-.32,5.24,1.85,6.14s5.09-.87,5.72-3.3c.51-2-.37-4.59-2.54-5.29S349.08,430.74,348.24,432.43Z" transform="translate(-167.21 -381.17)"/><path class="cls-1" d="M359.08,393.53c-1.06,2.14-.32,5.24,1.85,6.14s5.09-.88,5.72-3.31c.51-2-.37-4.58-2.54-5.28S359.92,391.84,359.08,393.53Z" transform="translate(-167.21 -381.17)"/><path class="cls-1" d="M386.26,407.22c-1.47,2.87-.57,7,2.3,8.1s6.78-1.29,7.68-4.54c.74-2.63-.38-6.08-3.23-6.95S387.42,405,386.26,407.22Z" transform="translate(-167.21 -381.17)"/><path class="cls-1" d="M416.48,394c-1.1,2.15-.42,5.2,1.72,6s5.06-1,5.73-3.39c.55-2-.28-4.54-2.41-5.19S417.34,392.28,416.48,394Z" transform="translate(-167.21 -381.17)"/><path class="cls-1" d="M458.12,406.57c-2.68.33-5.09,2.86-4.53,5.38s4.06,4.08,6.72,3.19c2.17-.72,4-3.1,3.3-5.48S460.23,406.31,458.12,406.57Z" transform="translate(-167.21 -381.17)"/><path class="cls-1" d="M480.28,405.27c-3-1.75-7.39-1-8.83,2s.85,7.31,4.24,8.47c2.75.95,6.52,0,7.68-3S482.61,406.64,480.28,405.27Z" transform="translate(-167.21 -381.17)"/><path class="cls-1" d="M471.37,449c-3-1.75-7.4-1-8.84,1.95s.85,7.31,4.24,8.47c2.76.95,6.52,0,7.69-3S473.7,450.36,471.37,449Z" transform="translate(-167.21 -381.17)"/><path class="cls-1" d="M396.13,504c0-2.77-2.22-5.6-4.89-5.41s-4.79,3.51-4.25,6.35c.44,2.31,2.62,4.56,5.18,4.19S396.1,506.23,396.13,504Z" transform="translate(-167.21 -381.17)"/><path class="cls-1" d="M352.55,488c0-2.37-1.9-4.78-4.18-4.62s-4.08,3-3.62,5.42c.37,2,2.23,3.89,4.42,3.57S352.52,489.89,352.55,488Z" transform="translate(-167.21 -381.17)"/><path class="cls-1" d="M438.07,488.27c0-2.37-1.9-4.78-4.18-4.62s-4.08,3-3.63,5.42c.38,2,2.24,3.89,4.43,3.57S438,490.13,438.07,488.27Z" transform="translate(-167.21 -381.17)"/><path class="cls-1" d="M395.43,514.52c0-2.36-1.9-4.77-4.18-4.62s-4.08,3-3.62,5.43c.37,2,2.23,3.89,4.42,3.57S395.4,516.39,395.43,514.52Z" transform="translate(-167.21 -381.17)"/><path class="cls-1" d="M442.4,555.72c0-2.37-1.9-4.78-4.17-4.62s-4.09,3-3.63,5.42c.37,2,2.24,3.89,4.42,3.57S442.37,557.58,442.4,555.72Z" transform="translate(-167.21 -381.17)"/><path class="cls-1" d="M453.12,554.75c0-2.36-1.9-4.77-4.17-4.62s-4.09,3-3.63,5.43c.37,2,2.24,3.89,4.42,3.57S453.09,556.62,453.12,554.75Z" transform="translate(-167.21 -381.17)"/><path class="cls-1" d="M426.38,536.08c0-2.36-1.9-4.77-4.17-4.62s-4.09,3-3.63,5.43c.37,2,2.24,3.89,4.42,3.57S426.35,538,426.38,536.08Z" transform="translate(-167.21 -381.17)"/><path class="cls-1" d="M350.14,553.79c0-2.36-1.9-4.78-4.18-4.62s-4.08,3-3.62,5.42c.37,2,2.23,3.9,4.42,3.57S350.11,555.65,350.14,553.79Z" transform="translate(-167.21 -381.17)"/><path class="cls-1" d="M397.6,580.41c.06-3.42-2.75-6.92-6-6.69s-5.91,4.34-5.25,7.85c.54,2.86,3.24,5.63,6.4,5.17S397.56,583.11,397.6,580.41Z" transform="translate(-167.21 -381.17)"/><path class="cls-1" d="M365.92,536.45c0-2.37-1.9-4.78-4.18-4.62s-4.08,3-3.62,5.42c.37,2,2.23,3.89,4.42,3.57S365.89,538.31,365.92,536.45Z" transform="translate(-167.21 -381.17)"/><path class="cls-1" d="M395.43,549.58c0-2.37-1.9-4.78-4.18-4.62s-4.08,3-3.62,5.42c.37,2,2.23,3.89,4.42,3.57S395.4,551.44,395.43,549.58Z" transform="translate(-167.21 -381.17)"/><path class="cls-1" d="M339.42,555c0-2.37-1.9-4.78-4.18-4.62s-4.08,3-3.62,5.42c.37,2,2.23,3.89,4.42,3.57S339.39,556.86,339.42,555Z" transform="translate(-167.21 -381.17)"/><path class="cls-1" d="M433.81,432.58c-1.33-2-4.27-2.84-6-1.4s-1.58,4.8.18,6.53c1.43,1.41,4,1.91,5.61.39S434.85,434.12,433.81,432.58Z" transform="translate(-167.21 -381.17)"/><path class="cls-1" d="M313.25,449.08c-2.92,1-5.05,4.5-3.88,7.3s5.45,3.82,8.23,2.18c2.27-1.34,3.83-4.54,2.49-7.15S315.56,448.29,313.25,449.08Z" transform="translate(-167.21 -381.17)"/><path class="cls-1" d="M305.77,403.84c-3.33,1.13-5.76,5.12-4.42,8.31,1.47,3.51,6.63,4.26,9.37,2.48,1.12-.73,1.16-3.36,2.39-4.34a1.69,1.69,0,0,1,.36-.23,1.13,1.13,0,0,0,.48-.32c.71-.82-.05-2.62-.4-3.25C312.37,404.35,308.85,402.79,305.77,403.84Z" transform="translate(-167.21 -381.17)"/><path class="cls-2" d="M314,409.74l7.87,1.45s.81-4,4.5-4.5,13-6.26,19.43-17.83,3.54-5.78,3.54-5.78,23.6,9.64,37.09,8.35c13.33.65,34.85-1.12,44.81-7.38" transform="translate(-167.21 -381.17)"/><path class="cls-2" d="M432.32,383.08s8.51,14.78,21.68,25.86c2.57-2.25,3.37,6.1,3.37,6.1s-9.48,3.53-23.93,16.86c0,0-1.28-2.24-10.44-30.19a17,17,0,0,1-1.93-4.66s30.36,10.6,33.57,14.46l3.21,3.85" transform="translate(-167.21 -381.17)"/><polyline class="cls-2" points="248.72 15.41 229.29 26.97 223.51 22.96 224.79 16.69 248.56 11.23 251.61 11.23 248.72 14.61"/><polygon class="cls-2" points="199.74 12.04 223.51 16.69 223.19 21.99 219.04 26.05 201.83 18.3 199.74 12.04"/><path class="cls-2" d="M332.74,410.54l28.19-10.87-6.67,30a6.44,6.44,0,0,0-6.58,2.89" transform="translate(-167.21 -381.17)"/><polyline class="cls-2" points="164.09 35.64 180.95 49.45 186.25 48.17"/><polyline class="cls-2" points="189.3 52.83 223.03 71.62 223.19 35.16 225.44 71.78 258.84 55.08 262.86 58.45"/><path class="cls-2" d="M467.33,411.35l3.21-.64,6.74,6.58-8,30.35-5.14,17.83-2.4,13.65-8.52,25.38-9.63,29.87L440,549.14l-5,4.82-9.16-12.53-3.21-10.76-19.75-50.75,4.65,25.54s-.32,12-6.9,7.55,2.09-9.8,2.09-9.8" transform="translate(-167.21 -381.17)"/><path class="cls-2" d="M402.28,478.16,396,461.78s-5.14-8.52-9.31,1.12-8.2,41.27-8.2,41.27-3.85,14.62,4.34,8-2.41-6.42-2.41-6.42" transform="translate(-167.21 -381.17)"/><line class="cls-2" x1="209.86" y1="123.01" x2="184.32" y2="110.16"/><path class="cls-2" d="M328.57,416.81l-8.67,32.76s-5.79-4.66-9.64-30.51" transform="translate(-167.21 -381.17)"/><path class="cls-2" d="M320.06,462.26s24.41,85.6,24.73,86.08,3.69,1.93,3.69,1.93l11.41-10s-1.45,1.61,1.92-10.44,9.64-29.07,9.64-29.07l1.44-10.44" transform="translate(-167.21 -381.17)"/><path class="cls-2" d="M365.83,533.72l21.36-17.66,4.86,2.84.28,25.1s-4.18.81-5,2.89S366,538.38,366,538.38l-2.73,2.73s2.57,19.6,1.12,29.71l-22.16-12.2" transform="translate(-167.21 -381.17)"/><path class="cls-2" d="M386.38,551.71,365,572.27l21.85,11.56a12.25,12.25,0,0,1,4.69-10.11" transform="translate(-167.21 -381.17)"/><polyline class="cls-2" points="224.31 191.1 224.15 173.28 229.13 168.14 250.97 191.59 230.25 201.54"/><path class="cls-2" d="M441.15,558.62l-21.84,14.13s-.48-24.57,2.25-30.35-5.14-3.54-5.14-3.54L397,546.41" transform="translate(-167.21 -381.17)"/><line class="cls-2" x1="249.53" y1="153.68" x2="228.65" y2="135.54"/><path class="cls-2" d="M400.84,515.58s14.61,9.95,15.74,18.31" transform="translate(-167.21 -381.17)"/><line class="cls-3" x1="291.12" y1="36.93" x2="299.63" y2="67.12"/><path class="cls-4" d="M409,452.14c-1.9,2.54-8.53,12-5.62,21,4.33,13.46,27.62,19.09,42.24,10.44C453,479.29,460.46,470,459,460.17c-2.07-13.67-20.62-22.25-34.69-18.63C416.13,443.64,411.11,449.42,409,452.14Z" transform="translate(-167.21 -381.17)"/><path class="cls-4" d="M348.8,442c-9.49,1.19-23.21,7.65-24.89,18.79-1.93,12.86,13,25.87,27.46,27.3,16.7,1.67,32.82-12.15,32.28-21.36a25.33,25.33,0,0,0-5.4-13c-.74-.92-1.59-1.79-1.59-1.79s-.94-1-2-1.87C363.08,440.23,348.8,442,348.8,442Z" transform="translate(-167.21 -381.17)"/><path class="cls-5" d="M376.27,450.69s10.27-1.92,15.25,5.46c1.45-2.08,8.35-9.31,16.38-3.85-1.28,3.85-6.1,12.85-6.1,12.85s-5.62-9.32-10.28-7.87-2.73-.48-7.54,5.46C382.85,461.29,376.27,450.69,376.27,450.69Z" transform="translate(-167.21 -381.17)"/><path class="cls-4" d="M498,521.36" transform="translate(-167.21 -381.17)"/><polyline class="cls-4" points="158.79 72.74 152.04 69.05 148.67 66.48"/><polyline class="cls-4" points="289.84 74.51 299.31 69.21 301.08 67.6"/><text class="cls-6" transform="translate(0 235.62)">V<tspan class="cls-7" x="41.13" y="0">i</tspan><tspan class="cls-8" x="53.46" y="0">r</tspan><tspan class="cls-9" x="80.94" y="0">t</tspan><tspan class="cls-10" x="119.95" y="0">u</tspan><tspan x="155.1" y="0">al Vi</tspan><tspan class="cls-11" x="299.42" y="0">s</tspan><tspan x="331.63" y="0">ion</tspan></text></svg>